<svg width="400" height="400" viewBox="0 0 400 400" fill="none" xmlns="http://www.w3.org/2000/svg">
<rect width="400" height="400" rx="200" fill="white"/>
<g clip-path="url(#clip0_3_2)">
<path d="M200 50C117.212 50 50 117.212 50 200C50 282.788 117.212 350 200 350C282.638 350 349.733 283.028 349.976 200.444C349.989 200.296 349.997 200.148 350 200C349.998 199.867 349.992 199.734 349.982 199.601C349.766 116.996 282.656 50 200 50ZM200 59C206.573 59 213.032 59.486 219.365 60.353C219.095 60.713 219.833 61.523 222.413 63.002L225.482 64.046C229.322 63.569 227.687 62.255 225.152 61.28C234.419 62.9451 243.495 65.5402 252.242 69.026C249.818 69.572 246.128 69.872 242.48 69.728C242.57 76.961 245.78 96.287 256.79 92.78C254.834 93.209 263.006 101.297 258.782 102.65C256.532 117.77 244.277 92.567 238.058 92.897C228.758 94.466 239.822 99.062 236.468 101.315C227.669 108.875 244.082 116.804 242.756 104.099C243.836 114.341 247.304 114.026 255.605 113.492C236.642 116.696 266.165 124.043 256.577 130.181C247.076 129.305 241.751 132.851 247.121 142.151C244.601 150.761 253.112 151.139 256.031 154.115L259.22 153.821L261.284 153.551C261.203 153.542 261.116 153.56 261.038 153.548C272.879 149.903 266.756 126.206 279.377 127.754C276.734 136.919 291.32 145.646 283.496 132.353C278.162 125.615 300.797 137.201 290.825 140.513C300.524 153.317 293.687 128.555 300.911 135.284C305.606 143.462 311.105 137.375 312.383 137.069C315.491 136.202 320.18 137.567 321.413 138.296C333.308 149.654 310.145 144.944 309.803 153.629C311.063 159.188 297.083 152.144 294.992 150.629C288.863 134.108 274.901 150.587 264.632 153.242C264.284 153.515 255.848 160.097 254.855 160.97C252.449 175.445 240.815 184.244 236.498 198.887C235.631 207.347 238.436 219.05 237.26 228.179C239.996 239.885 251.072 246.587 260.726 252.317C267.992 256.997 275.567 248.033 283.385 247.931C290.225 237.869 301.175 245.246 307.361 244.502C300.236 255.722 312.659 264.392 309.143 276.53C303.632 283.274 302.081 292.235 299.129 300.284C273.668 325.454 238.67 341 200 341C181.26 341.023 162.704 337.302 145.421 330.056C148.604 327.161 150.461 322.847 154.742 321.611C174.185 326.312 165.722 302.255 178.922 296.813C187.769 280.601 159.53 278.021 149.45 272.117C132.404 269.543 134.006 248.795 118.526 244.307C105.848 242.288 110.447 224.018 101.153 224.996C93.131 226.487 89.948 215.447 85.478 216.236C84.398 217.376 79.88 208.826 75.02 218.246C61.295 215.207 70.898 199.448 65.099 190.625C62.696 186.584 71.957 165.863 62.036 177.905C61.646 177.215 61.382 176.276 61.22 175.175C62.4886 168.029 64.307 160.993 66.659 154.127C68.12 152.504 69.8 151.697 71.651 152.306C78.986 150.638 76.547 162.161 77.153 169.298C82.682 171.668 80.093 148.376 91.583 147.833C99.404 139.028 108.473 131.531 117.983 125.468C121.691 128.114 129.671 127.793 135.929 121.919C128.957 120.518 128.456 115.199 137.774 113.105C152.6 106.733 131.084 120.089 143.189 122.015C156.329 125.885 145.187 110.591 151.415 104.609C144.893 100.169 155.36 82.907 143.954 90.575C147.899 87.755 141.764 82.463 145.286 80.399C146.741 84.479 154.076 90.083 156.683 80.675C164.012 81.926 162.983 71.309 166.943 65.597C185.528 59.048 170.141 77.066 169.442 86.006C175.424 103.436 185.513 79.286 196.142 78.686C209.066 79.127 207.59 66.773 207.389 60.161C204.597 59.6386 201.78 59.2581 198.95 59.021C199.301 59.021 199.649 59 200 59ZM150.137 73.901C152.516 73.61 148.763 78.773 143.633 79.625C136.793 85.328 142.622 77.621 145.538 76.367C147.869 74.699 149.345 73.997 150.137 73.901ZM255.047 77.675C255.254 77.657 255.578 77.714 256.067 77.879C258.269 81.527 253.622 77.789 255.047 77.675ZM134.288 79.391C139.547 79.772 133.943 92.045 128.099 92.651C124.967 92.36 122.828 97.301 120.407 98.915C120.167 99.995 120.599 82.007 128.777 81.314C131.282 79.844 133.073 79.304 134.288 79.391ZM210.002 79.721C207.32 79.832 205.328 80.963 206.423 83.879C207.989 85.388 210.272 85.754 212.351 85.766C225.161 84.176 215.903 79.475 210.002 79.721ZM255.377 82.058C255.947 82.112 257.276 82.616 259.748 83.864C264.74 90.164 252.917 81.836 255.377 82.061M230.708 86.687C230.546 86.756 230.411 87.059 230.363 87.722C232.712 90.362 231.413 86.375 230.708 86.687ZM239.78 88.865C239.588 88.814 239.57 89.231 239.954 90.545C242.477 93.419 240.35 89.021 239.78 88.865ZM265.46 88.895C267.524 88.886 273.299 92.477 272.135 96.395C266.558 100.901 269.141 98.495 268.052 93.5C264.317 90.197 264.224 88.901 265.46 88.895ZM102.863 107.117C103.271 107.165 103.853 107.654 104.651 108.857C102.659 114.971 101.099 106.91 102.863 107.117ZM130.718 110.663C131.09 110.666 131.696 110.963 132.587 111.803C130.64 113.273 129.608 110.648 130.718 110.663ZM301.388 111.743C301.919 111.68 302.963 112.424 304.706 114.437C306.788 111.017 317.534 118.955 308.21 120.389C306.452 127.403 299.099 112.007 301.391 111.74M103.082 114.557C103.277 114.512 103.484 114.632 103.691 114.989C100.895 123.23 101.717 114.86 103.082 114.557ZM284.537 123.023C284.633 123.001 284.733 123.003 284.828 123.029C286.508 123.308 293.129 127.073 295.769 129.695C297.386 133.313 290.468 126.869 289.067 127.289C285.149 124.367 284.069 123.164 284.537 123.023ZM99.632 123.092C99.974 123.161 100.241 123.512 100.316 124.322C95.255 127.841 98.15 122.792 99.632 123.092ZM304.76 129.8C305.018 129.689 305.762 130.106 307.298 131.552C307.568 135.218 303.983 130.13 304.76 129.8ZM273.938 136.742C273.317 136.841 272.363 137.924 271.061 140.798C274.691 145.034 275.801 136.448 273.938 136.742ZM312.152 139.766C311.474 139.856 310.763 140.615 310.289 142.577C315.929 145.268 314.186 139.502 312.152 139.766ZM202.529 148.106C201.8 148.04 200.78 148.346 199.538 149.375C204.32 151.847 204.725 148.298 202.532 148.103M209.15 150.356C208.85 150.245 208.256 150.452 207.245 151.301C208.286 153.905 210.044 150.692 209.15 150.356ZM232.97 165.59C232.679 165.659 232.301 165.98 231.815 166.709C233.657 169.757 234.215 165.29 232.967 165.59M82.466 166.874C82.193 166.877 82.028 167.558 82.19 169.511C85.118 172.997 83.288 166.865 82.466 166.874ZM80.837 171.824C80.564 171.779 80.153 172.592 79.607 175.013C81.257 179.816 81.662 171.965 80.837 171.824ZM72.458 174.356C66.635 173.756 77.351 184.037 77.774 188.57C88.559 191.48 76.265 194.774 85.385 198.449C99.116 203.393 90.629 192.35 84.806 190.025C87.089 186.356 79.013 183.65 76.046 175.328C74.459 174.749 73.292 174.443 72.458 174.356ZM242.567 176.654C241.949 176.654 241.268 177.794 240.98 181.193C245.006 182.162 243.929 176.654 242.567 176.654ZM83.795 179.102C83.7569 179.092 83.7171 179.089 83.678 179.094C83.6389 179.099 83.6012 179.112 83.567 179.132C83.252 179.333 83.231 180.311 84.107 182.441L84.785 182.891C85.346 180.902 84.392 179.255 83.795 179.102ZM232.313 179.354C230.549 179.456 229.412 180.254 230.663 182.342L231.191 182.588H234.188C243.089 182.294 236.189 179.132 232.313 179.354ZM75.44 190.292C74.651 190.124 74.54 191.039 76.43 194.228C82.202 196.235 77.18 190.658 75.44 190.292ZM59.333 190.742C61.334 199.409 62.609 209.486 66.323 217.103C68.777 226.427 70.586 214.691 71.198 222.038C73.28 235.916 64.82 250.214 75.23 263.522C80.18 276.941 91.052 286.343 98.66 298.028C74.12 272.66 59 238.118 59 200C59 196.886 59.135 193.805 59.333 190.742ZM95.228 198.746C94.508 198.836 93.866 199.604 93.692 201.587C100.304 204.29 97.391 198.473 95.228 198.746ZM105.758 209.681C105.467 209.564 105.164 210.878 104.966 214.823L105.086 216.998C107.426 223.25 106.634 210.026 105.758 209.681ZM210.986 218.483C210.239 218.402 210.23 218.984 212.306 220.955C217.847 222.053 212.63 218.663 210.986 218.483ZM219.044 220.328C218.699 220.334 218.249 220.583 217.685 221.231C219.983 224.843 220.535 220.301 219.044 220.328ZM217.706 224.282C217.178 224.366 216.437 224.717 215.435 225.476C218.192 228.452 219.995 223.91 217.706 224.282ZM213.836 224.861C213.554 224.831 213.128 225.245 212.546 226.496C214.196 229.034 214.676 224.951 213.836 224.861ZM301.496 252.8C301.214 252.77 300.788 253.181 300.206 254.435C301.856 256.973 302.339 252.887 301.496 252.8Z" fill="#007AFF"/>
</g>
<defs>
<clipPath id="clip0_3_2">
<rect width="300" height="300" fill="white" transform="translate(50 50)"/>
</clipPath>
</defs>
</svg>
