<svg width="100" height="100" viewBox="0 0 100 100" fill="none" xmlns="http://www.w3.org/2000/svg">
<rect width="100" height="100" rx="50" fill="white"/>
<path fill-rule="evenodd" clip-rule="evenodd" d="M16.0486 50C16.0486 31.2492 31.2492 16.0486 50 16.0486C68.7508 16.0486 83.9514 31.2492 83.9514 50C83.9514 68.7508 68.7508 83.9514 50 83.9514C31.2492 83.9514 16.0486 68.7508 16.0486 50ZM28.0458 38.7006C28.2743 39.3221 28.8363 40.1045 28.8908 41.2708L28.6603 41.4331L28.33 41.6142C27.2253 40.9634 27.4734 41.2598 26.8013 40.2244C25.7824 40.1076 25.5955 40.3299 25.3583 40.1082L25.1572 39.8587C24.6328 39.2079 25.607 38.3052 26.0281 38.018C26.3497 37.642 26.2038 37.7113 26.6758 37.4179C27.3973 37.0318 27.0364 38.0864 27.0023 38.7715C27.3312 38.7194 27.3824 38.6646 27.738 38.6543C27.7519 38.6274 27.7572 38.5492 27.7597 38.566C27.7638 38.5937 27.7178 37.5644 28.6671 37.7459C29.0482 37.9077 28.9143 37.6531 28.8347 38.0713L28.0458 38.7006ZM35.2019 21.9668C36.1957 21.5948 37.3962 21.2473 38.6549 21.2421C39.0963 20.6978 38.8607 21.0359 39.5878 20.5959C39.9844 20.3557 40.1759 20.0637 40.4109 19.7216L40.7234 19.5998C40.8359 19.4203 40.7797 19.5061 40.8891 19.3589L41.1739 19.0238C41.1828 18.9851 41.2134 18.9817 41.2345 18.9619C41.1388 18.9031 41.2943 18.8538 40.8154 18.8328C39.5628 18.9192 34.9105 20.9918 34.0819 21.619C34.1677 21.8322 34.229 21.9605 34.282 22.1851L34.7184 22.1431L35.2019 21.9668ZM72.6519 50.0824C72.6951 49.4483 72.7442 48.9316 72.4255 48.362C72.1989 47.9576 72.3758 48.1712 72.0767 47.987C71.774 48.4735 71.6782 49.8303 72.6519 50.0824ZM34.474 74.3212C33.7344 75.1641 34.6767 74.8725 33.4497 75.364C33.1526 75.4829 33.3774 75.3353 33.182 75.499C33.2423 76.0142 33.5476 76.193 33.8358 76.4917C34.3802 77.0561 34.0364 77.0663 34.3759 77.5712C34.6244 77.9408 35.8919 78.8557 36.4664 78.6615C36.6034 78.3364 36.2492 78.0143 36.0695 77.6094C35.1821 75.6108 35.7043 75.7948 35.4021 75.1643C35.2264 74.7975 34.8718 74.3957 34.474 74.3212ZM73.7884 70.2168L72.0011 72.0323C71.2748 73.0277 70.2623 73.596 69.2779 74.1827C68.8697 74.426 68.1594 75.0037 67.8042 75.1368C67.3901 75.4307 67.3421 75.6988 66.9909 75.9471C66.8247 76.1752 66.6975 76.3963 66.5437 76.5596C66.2012 76.9235 66.383 76.5834 66.0553 77.1424C65.9651 77.4072 66.0334 77.294 65.8274 77.4734C65.4537 78.329 64.7596 78.6098 63.9145 79.2136C64.4989 79.6265 68.7082 76.6678 69.5014 76.4316C70.161 76.0638 71.1776 75.1626 71.7396 74.6712C72.4366 74.0616 73.0992 73.3546 73.7323 72.7167C74.816 71.6247 76.3924 69.753 77.2377 68.2844L76.9712 68.1857C76.9309 67.3503 77.7268 66.9093 77.8817 66.2468C77.487 66.4326 77.8565 66.4828 77.1758 66.6359C76.7769 66.7255 76.8968 66.6985 76.6367 67.1395C74.8809 70.1186 74.8769 68.9544 74.3615 69.5112C74.0286 69.8707 74.1841 69.8491 73.7884 70.2168ZM63.5752 66.613C63.8573 66.9542 64.2438 67.3518 64.3925 67.7705C64.5396 68.1847 64.4869 68.3826 64.7359 68.6986C65.1104 69.1739 66.0434 69.427 66.787 69.3491C67.1862 69.16 67.0629 68.5914 67.6694 67.6053L66.1333 66.8406C66.1678 66.5206 66.2043 66.7423 66.2885 66.3572C65.7638 66.1573 65.5614 65.9734 64.9134 65.8316C63.2655 65.4713 64.9044 65.1488 62.3323 64.745C61.5646 64.6246 61.0898 64.3839 60.8222 64.9354C60.8478 64.9541 60.8915 64.9421 60.9061 64.9798C60.9208 65.0174 60.9708 65.0136 60.9912 65.0216C61.1073 65.0662 61.1285 65.0762 61.259 65.1134C62.5999 65.4947 61.8873 65.522 62.4282 65.9028C63.0289 66.3257 62.7677 65.6364 63.5752 66.613ZM69.3749 64.6673C68.7809 65.4831 69.5371 66.0364 69.582 66.2482C69.6427 66.5344 69.4862 66.532 69.5251 67.0537L69.8261 67.1462L70.3005 66.998C70.9459 66.2534 72.3386 67.3081 72.5757 65.6357C72.709 64.6962 72.9249 65.0787 73.2043 64.4099C73.3218 64.1286 73.3119 63.8742 73.3877 63.6714C73.5921 63.1252 73.5216 63.5851 73.8914 63.0781C73.6345 62.702 73.372 62.5526 73.5427 62.1019C73.7479 61.5602 73.5757 61.9855 73.7578 61.7904L74.1593 60.5242C73.891 60.1563 73.6458 59.9499 73.0892 59.794C72.7595 60.8421 72.6445 61.1398 71.9945 61.807C71.3792 62.4387 71.4062 62.7997 70.595 63.36L70.1344 64.2432C69.8852 64.4456 69.6061 64.3498 69.3749 64.6673ZM75.141 64.4566C74.9717 63.5476 75.2943 63.9078 75.5769 63.1526C74.6182 63.249 75.2739 63.7798 74.5971 63.7191C74.3756 63.2115 74.5439 63.0869 74.7354 62.6908C75.8258 62.4424 76.427 62.6072 76.5505 61.3128C76.5247 61.331 76.4883 61.3308 76.477 61.3726C76.4658 61.414 76.4206 61.4189 76.4055 61.4329L76.0457 61.7993C75.2402 62.542 74.5853 61.9115 74.3198 63.2043C73.9502 65.0039 73.9073 63.348 73.6079 66.5795C74.6126 66.1951 74.0828 65.4468 74.4252 64.7899L74.6535 65.5273C74.7195 65.7391 74.6958 65.6822 74.7736 65.8035C75.4365 65.4746 75.278 65.193 75.141 64.4566ZM80.2432 59.8278C79.8898 60.3665 79.6234 61.1122 79.2502 61.6159C79.0586 60.9011 79.1186 61.2746 79.1745 60.5347C78.7221 60.8273 78.3557 61.1011 78.1638 61.569C78.3688 62.0018 78.1905 61.6333 78.5825 61.9173L78.5123 62.586L79.4921 62.2696C79.5046 62.9013 79.2634 63.325 79.0877 63.6996C79.3976 63.6463 79.4952 63.6119 79.7082 63.3669C79.8872 63.161 79.9729 62.9234 80.0688 62.6748L80.1586 62.8528L81.0682 60.3044L80.98 59.7637L80.4372 59.7994L80.2432 59.8278ZM73.4921 54.3961C73.5859 54.5531 73.8682 54.4518 74.0572 54.9641C74.2001 55.3518 73.9871 55.3973 74.5414 55.6588L74.6033 54.9135C75.35 54.7038 75.2345 55.0424 75.7431 55.4232C76.1626 55.713 75.8577 55.9889 75.2085 55.8521L74.9963 55.9845L75.0523 56.4888L75.7027 57.2001L76.1407 56.808C76.1392 56.088 76.0338 56.6106 75.8809 55.931L76.2838 55.8054C76.4087 56.478 76.7342 56.8945 76.1161 57.3438C76.0133 57.4184 75.444 57.4326 75.3741 58.8019C75.7729 58.4262 75.4045 58.3624 75.9742 58.2799C76.0541 58.0754 75.8471 58.1331 76.1248 58.1073C76.1676 58.6613 76.2348 58.9108 76.7285 58.9919C76.7733 58.5275 76.6891 58.5414 76.8431 58.1736C76.9374 57.9484 77.0669 58.1626 77.0018 57.2781C76.8456 55.1579 76.6382 56.7708 76.4564 55.6303L76.3609 55.6433L76.3859 55.0605C76.0569 54.7238 75.9759 54.766 75.6053 54.9329C75.796 53.4543 75.2796 54.4977 74.4958 54.1912C74.2771 53.3112 74.6273 51.6153 73.57 51.7702C73.4958 51.9596 73.4346 54.0587 73.4921 54.3961ZM23.4058 39.8196C23.3907 39.8359 23.3862 39.86 23.4766 39.862L24.0575 39.8614C24.1243 41.0637 23.2576 41.5227 23.901 42.817L24.1455 43.2318C24.5295 43.1434 24.2898 43.2021 24.6023 43.0442L25.0944 43.7761L26.0931 43.6555C25.9947 44.693 25.3936 45.9825 24.7679 46.502L24.6288 46.7344C24.018 46.6883 24.0111 46.406 23.4771 46.2121C22.7659 45.9539 22.7861 46.1724 22.5052 45.4342L21.5115 43.6306C21.0158 43.6807 21.0031 43.7341 20.7337 43.9321C20.7276 43.975 20.7154 44.1721 20.7014 44.2083C20.5801 44.5204 20.6326 44.3784 20.4658 44.5629C20.2641 44.0287 19.9925 43.7953 20.0101 43.2188C19.9679 41.7636 19.5409 41.3913 20.1575 40.0509C21.1896 37.8071 20.2388 38.9033 20.1727 37.3848L19.8387 37.3704C16.6257 45.8757 16.1919 53.3142 19.4579 62.0678C21.6073 67.8284 25.8274 73.1593 30.586 76.5988C31.055 76.9378 32.288 77.8225 32.8051 78.0438C32.9769 77.9301 32.9458 78.0305 32.8179 77.8479C31.9719 77.335 32.2795 77.4212 31.7789 76.678C31.4685 76.2169 30.8558 76.1207 30.7547 75.499C31.0011 74.9754 31.1037 75.2302 31.4378 74.8025C31.1356 73.7195 29.643 72.2107 29.3426 71.5336L28.998 71.0422C28.4194 70.5604 28.231 69.3261 28.6275 68.6063C29.0439 67.8505 29.5168 67.3039 30.204 66.8166C30.9967 66.2546 32.2002 63.5002 32.1926 62.1438L32.2004 61.5618L31.587 61.4757C31.2612 61.6499 30.3058 61.5987 29.4744 61.5869C28.6834 61.5757 28.2683 61.4149 28.1392 60.7416C28.0926 59.8009 26.2474 57.8763 25.8911 57.0415C25.6858 56.5602 25.6625 56.0601 25.4298 55.5268C25.1639 54.9173 25.2803 54.4735 25.1336 53.8328C24.9476 53.0207 23.8851 49.9241 24.2866 49.0781C25.5412 49.4306 25.5741 52.7487 26.5216 55.2454C26.6719 55.6414 26.6852 55.8906 26.8934 56.2691C27.1063 56.6565 27.2859 56.8041 27.427 57.274C27.4061 57.2815 27.3696 57.2593 27.3614 57.2833C27.2056 57.734 27.3185 57.2824 27.2234 57.3086L26.9956 57.39C27.8755 59.0759 27.835 59.5455 28.1808 60.1869C28.7055 60.2619 28.6335 60.2923 29.07 60.1336C29.3493 60.0322 29.2957 59.7975 29.6605 60.1222C30.1672 60.052 31.7403 59.6527 32.1119 59.4474C32.7158 59.1136 32.2796 58.9301 32.8988 58.7369C33.5669 58.5285 33.7129 58.8284 34.0445 58.2331C34.2689 57.9635 34.0959 58.1259 34.3649 57.9892C34.8351 57.9852 34.7186 57.9932 34.9412 57.7503C35.4287 57.2416 35.3911 57.7357 35.4619 56.8096C35.8519 56.5273 35.7822 56.6795 35.9817 56.2069C36.3789 55.2658 37.1495 55.3942 35.0288 54.1263C34.4361 53.9957 34.4139 53.3444 34.4953 52.7618C33.3341 52.9037 33.675 53.8476 32.0389 53.6664C31.904 53.1847 31.9827 52.6516 31.7306 52.4955C31.3832 52.2804 31.5124 52.535 31.5102 52.5369C31.1337 52.4043 31.2473 52.5107 31.0249 52.0203C30.9189 51.7865 30.8486 51.6047 30.7498 51.3591C30.5276 50.8066 30.3088 50.501 30.3617 49.8923C31.2653 48.6836 31.5996 50.408 32.0274 51.1357C32.299 51.5976 32.4936 51.8402 32.9308 52.0838C33.7213 52.5239 33.8471 52.2216 34.524 52.1671L34.7599 52.2231L35.0221 52.9735L37.1158 53.527C37.9709 53.7484 39.6167 53.6215 40.1234 53.8269C40.7436 54.0783 41.2076 54.9694 42.2133 55.2582C41.8627 56.5173 43.1499 56.7125 43.6003 56.531C44.0216 56.3611 43.8053 56.2012 44.1134 55.9531L44.6943 57.6243C45.1428 59.0015 46.6257 62.2473 46.6543 62.4007C46.9978 62.6333 46.9383 62.5331 46.994 62.967C47.6178 63.4287 47.7827 64.5437 48.875 64.6069C49.4087 64.3155 49.421 63.8939 50.1526 64.0066C50.4165 64.5686 50.1728 65.1072 50.7027 65.5621C51.3385 65.6909 51.673 65.2492 51.7662 64.5872C50.3407 62.8303 50.5822 63.944 49.8132 63.6585C49.7927 63.1081 50.1409 63.4307 50.0861 62.1991C50.0044 61.6103 49.9705 61.0116 49.894 60.4164C49.7961 59.6544 50.0733 59.7887 50.4458 59.1647C51.0214 58.9919 51.6189 58.0806 52.1611 57.7216L52.3366 57.4995C52.8653 56.6719 53.2146 57.0743 53.5636 55.9072C53.897 54.7921 54.5532 55.9721 55.3475 55.0102L56.4132 54.6251C56.7538 54.9197 56.8035 54.9995 57.0238 55.2814C57.1277 55.4145 57.1846 55.5145 57.3336 55.6752C57.624 55.9884 57.3266 55.8319 57.7127 55.9439L58.7208 56.8323C59.1712 57.1876 58.944 57.886 59.273 58.2541C59.8954 58.8122 60.7666 57.6474 61.0694 57.4062C61.7917 58.0321 62.0622 59.4393 62.5565 60.338L62.7132 60.8227C62.5115 61.2225 62.5382 62.1458 62.6669 62.7298C62.7963 62.7967 62.7514 62.7501 62.9486 62.8095C63.4035 62.9464 63.9082 63.3779 64.2064 63.7707C64.6672 64.3774 64.0034 64.5715 65.4006 65.2415C66.3258 65.685 66.0296 65.8036 66.502 65.931C66.7409 65.4418 66.4734 64.9069 66.1964 64.4525C66.0483 64.2094 65.4111 63.2941 65.2705 63.1761C64.3714 62.4214 64.0591 63.5706 63.4858 60.664L63.4708 60.5371L63.3941 60.1084C63.3599 59.5577 63.3319 59.3851 63.6244 59.051C64.0383 59.2017 63.7213 59.024 63.9729 59.4265C64.5801 59.4148 64.6057 59.3447 64.9118 59.7207L65.5926 60.1162C66.093 60.3695 65.8984 60.397 66.6027 60.4675L66.5802 61.2708C67.3066 61.0903 67.267 60.2028 68.5778 59.1735L68.8574 58.4886C68.6709 57.0209 68.5108 56.6568 67.5393 56.0376C66.7527 55.5362 65.7567 55.2255 65.7722 54.252C65.9452 53.6986 66.5581 52.4462 67.2806 52.6963C67.7914 52.8731 67.3537 53.0654 67.9215 53.2078C68.2098 52.6895 67.8105 52.0505 68.9689 52.0089C69.127 51.6633 69.0895 51.6265 69.438 51.4105C69.6255 50.9524 70.22 50.7793 70.4654 50.3085C70.8903 49.4931 71.2238 47.6107 71.0203 46.3853C70.693 44.4167 70.7245 45.1589 70.2879 45.3055L70.2205 45.0036C70.0359 44.4993 70.1977 44.9483 69.8695 44.5369C69.3882 44.2463 69.5881 44.1683 69.0499 43.9411L68.9654 43.8267C68.5763 43.573 67.852 43.3359 67.5845 43.1117C67.576 42.7023 67.5233 41.8765 67.9745 41.6741C67.8871 41.2605 68.0741 41.5227 67.8054 41.3115C67.286 41.3868 67.2733 41.3289 67.0178 41.617C66.8856 41.726 66.8171 41.7977 66.6274 41.9526L66.293 41.6992C65.2063 41.6919 65.5436 41.2972 65.717 40.5848C65.7849 40.0581 65.6927 39.967 66.1991 39.9919C66.2837 40.2083 66.3282 40.3038 66.4502 40.519L66.7602 40.923L67.1467 40.419C67.1829 40.0818 67.0735 40.3322 67.2877 40.041C68.4293 39.9298 67.6127 40.8786 68.923 40.7776L69.3997 40.7844C69.6227 41.3723 70.1478 41.9781 70.458 42.2864C70.6795 42.1992 70.5721 42.2466 70.7609 42.1193C72.629 40.8595 69.2062 39.8631 68.7424 39.6293C68.6814 39.0037 68.9101 39.003 68.672 38.5344C68.4475 38.0925 68.3777 38.1694 68.3362 37.5398C68.644 37.2109 69.3449 37.4336 68.9856 36.3745C68.3209 34.4152 66.8435 33.3288 66.6872 33.0634C66.2766 33.047 66.4178 33.0918 66.1599 32.7372C65.8598 32.6221 65.018 31.8836 64.1751 31.9031C63.7153 31.9138 63.7272 32.2652 63.686 32.1842C63.6748 32.1625 63.6465 32.2372 63.6244 32.2616C63.288 32.082 63.1816 31.9569 63.0104 31.991C62.9954 31.9939 62.966 32.0102 62.9492 32.0146L62.4188 32.1271C62.0584 30.8394 60.8109 29.4934 62.6621 29.2297C63.3023 29.1518 63.4908 29.089 63.8518 28.7174C63.7427 28.5996 63.6831 28.5633 63.5221 28.4631C63.1856 28.2544 62.8328 28.1453 62.755 27.7235C63.2267 27.5592 63.1848 27.6768 63.6354 27.7744C63.553 27.3739 63.4975 27.4878 63.3554 27.0771C64.4339 27.5074 64.4796 28.6221 65.8727 29.2525C66.8235 29.6827 68.4137 30.1101 69.1812 30.5487L69.4252 30.3575C69.0387 30.1457 68.7445 29.8662 68.3819 29.5326C67.9224 29.1099 68.0798 28.9896 67.3987 28.6595C65.6108 27.7928 65.7671 28.3592 64.916 27.4406C65.0975 27.0139 65.0693 26.927 65.5951 26.8005C65.2356 26.5388 65.1999 26.5685 65.0184 26.125C64.3618 25.6157 64.8995 25.785 64.6697 25.3709C63.7851 25.2137 63.8 25.4845 63.1792 24.8867C63.1997 24.8662 63.2335 24.8449 63.2493 24.8356C63.7937 24.5165 63.7719 24.7624 64.1845 24.4223C63.7447 23.8212 62.9197 24.254 62.0702 24.3151L61.7969 24.384C60.665 24.6029 60.1221 24.74 59.0723 25.0531L59.6008 25.3784L56.0735 26.0602L53.9414 26.1457L53.1709 26.3117C53.2862 26.6877 53.179 26.3613 53.3804 26.7085C52.665 26.8837 51.8572 27.1623 51.2765 26.981C50.9356 26.8993 50.1902 26.552 49.9564 26.6276C49.5631 26.7547 50.2329 26.8292 49.3594 26.9083C48.9575 26.9448 48.7953 26.818 48.2949 26.818C47.7115 26.9945 48.1119 26.7265 47.6193 26.7696C47.0977 26.8151 47.6781 26.8573 46.9944 26.9995C47.2239 26.5655 47.4118 26.6638 47.4467 26.1692C46.9483 25.8179 46.7333 26.055 46.2057 25.7994C45.7833 25.5949 45.706 25.5204 45.2741 25.8155C42.8917 26.4053 43.6629 26.5577 42.8314 26.8518C42.6495 26.9162 42.8113 26.8109 42.5649 26.9389C42.3131 27.0699 42.4609 27.1061 42.0139 27.2681L41.2579 27.253C41.1328 27.4478 40.9933 27.7762 41.0077 28.1491C41.0356 28.8649 40.8443 28.5229 41.3984 28.6675C40.8037 29.0009 41.3067 29.3326 40.5557 29.5996C40.5557 29.5992 41.1538 28.1925 40.9952 26.7937L40.5498 26.9383C40.4218 27.26 40.6186 27.0673 40.2315 27.3553C39.6672 27.9667 39.8889 27.9614 39.9865 28.7637C39.5209 28.5639 39.5382 28.3969 39.221 28.1544C38.8246 27.8514 38.8924 28.0673 38.626 27.6055C38.3572 28.0457 38.6779 27.4834 38.4861 28.0776L38.4227 28.2434C38.0149 28.034 38.2402 28.1716 37.7724 28.1818C37.1238 28.1958 36.7578 27.8535 36.0993 28.3516C35.7648 28.1496 36.0265 28.4284 36.2128 27.6723C35.7924 27.6719 35.6782 27.7905 35.3808 28.453C34.3357 28.5759 34.789 28.5759 34.1256 28.8289C33.6448 28.3639 33.7305 28.7533 33.8538 27.9838C34.7186 28.2446 34.3027 28.5288 35.3839 27.931L35.0551 26.968L35.0388 26.6604C34.7681 26.0888 34.9762 26.4959 35.1722 25.8873L34.8049 25.7997C34.6025 25.5389 34.7551 25.6006 34.3499 25.5113C33.3393 25.2885 33.0599 25.6514 31.9043 26.1418C31.5908 26.2749 31.3261 26.5017 31.0807 26.6054C30.7447 26.7474 29.4489 26.2889 28.0391 28.4233C28.1097 28.6673 28.2525 28.5887 28.4136 28.7174C28.209 29.0825 27.8886 29.5348 27.5531 29.7237C27.6636 29.2416 27.7221 29.6378 27.757 29.0668C27.0842 29.2659 27.1184 29.7988 26.565 30.1151C26.0557 30.4063 26.1687 29.9255 25.253 30.5484C25.2452 30.1376 25.2437 30.3763 25.5647 30.0382C25.8103 29.7798 25.7197 29.8314 25.9501 29.4899C26.1792 29.1506 26.5652 28.7643 26.7822 28.4693C27.2488 28.0789 27.8216 27.5003 28.3914 26.9721C28.1721 26.7703 28.401 26.8391 28.0089 26.8731C27.977 26.8759 27.7142 26.999 27.6804 27.0209C26.6844 27.6673 26.8051 27.4764 26.4853 27.6927C26.1818 27.8981 26.3784 27.8974 25.9331 28.1042L25.2163 28.822L25.2478 28.9582C25.2331 29.1622 25.2878 28.9742 25.2105 29.1877C24.9737 29.8408 25.0595 29.0506 24.8063 30.0957C24.6938 30.5603 24.9401 30.2346 24.5417 30.5732C23.5172 30.7878 23.8063 31.8404 22.4438 33.0905L22.5386 32.4618C21.9362 33.0315 20.819 35.2238 20.3872 36.2064L20.4855 36.2898C20.9598 36.3447 20.6292 35.8589 21.6273 35.0251C21.8525 34.8369 21.8219 34.7887 22.0473 34.5216L22.5796 35.0614C22.5998 35.0721 22.6437 35.0826 22.6708 35.102C22.4477 35.7799 22.1512 36.3305 22.0946 37.0932C22.015 38.1663 22.0781 38.5857 21.5756 39.2612C21.2155 39.2077 21.2401 38.9721 21.0735 38.8977L21.0507 40.0422L21.4923 39.6693C22.6449 38.7775 21.857 38.3329 22.5943 38.6832C22.5997 38.6859 22.6242 38.7056 22.6396 38.7006C22.8016 37.0462 22.3695 35.8505 23.5332 34.9159C23.4509 35.4496 23.1992 35.8005 23.1115 36.3854C23.0182 37.0086 23.1476 37.7433 23.0265 38.3014C22.8986 38.8915 22.5668 38.9707 22.5143 39.7543C22.4878 40.1492 22.5568 40.2695 22.5135 40.6566C22.4774 40.9789 22.3755 41.1711 22.4164 41.5866C23.3953 41.4518 23.295 40.0638 23.3331 39.8614C23.3685 39.842 23.3915 39.8285 23.4058 39.8196ZM33.4992 42.5348L33.606 42.9922L33.2522 43.0441C33.244 43.044 32.9653 43.006 32.8638 43.0033C32.7444 43.9121 33.057 43.5232 33.2335 44.1085C33.3064 44.35 33.1593 44.9478 33.1847 45.4217C31.5657 45.5578 32.0408 45.2549 31.5877 44.8336C31.2889 44.5558 31.4481 44.9013 31.115 44.5048C30.9537 44.0829 31.3801 43.891 31.5083 43.6357L31.8978 42.9957C31.3885 41.5323 31.0809 41.9076 31.2295 40.8269C31.3358 40.0529 31.2087 40.7769 31.1422 40.1005C31.5335 39.6488 31.5229 39.764 32.111 39.4876C32.6847 39.2181 32.6375 38.9532 33.2707 39.1305C33.5988 39.6683 33.6263 39.4594 33.2432 40.1408C32.6068 40.1314 32.7837 40.181 32.3172 40.4135C32.463 41.7503 33.1468 41.1791 32.8226 42.5989C33.2927 42.4338 33.0449 42.4456 33.3877 42.3262L33.4992 42.5348ZM30.964 29.8349C30.6706 30.6677 30.5881 29.8568 29.6897 29.9956C29.5316 30.3391 29.5606 30.4209 29.3065 30.7543C28.9477 30.7188 29.2789 30.6467 28.8993 30.4742C28.1937 30.8778 28.3642 31.3723 27.5056 31.5507C27.4979 31.527 27.4945 31.4621 27.4923 31.4772L27.3896 31.0997L26.806 31.1342L26.8273 30.7449C26.8147 30.5097 26.5055 30.8014 26.8723 30.5084C27.1174 30.3125 27.1057 30.431 27.3067 30.4231L27.4793 30.4227C28.1366 30.3716 28.1165 30.194 28.5083 29.8353C28.9091 29.4683 28.88 29.6218 29.3346 29.3921C29.8001 29.1566 29.6167 29.0618 29.8849 28.6544C30.3658 27.9239 31.2073 27.8576 31.5259 27.7491C31.9368 27.6092 31.8023 27.4696 32.3835 27.2824C32.791 27.5048 32.5064 27.2652 32.5888 27.6021L32.5131 27.6273C31.8176 27.8845 30.0875 28.3435 30.0275 29.6487L30.964 29.8349ZM42.206 40.0282C42.9589 39.8364 43.9943 39.3936 44.7541 39.1982C44.8505 39.1734 44.8538 39.1837 44.9194 39.2259L45.2929 39.4865C45.3928 39.5568 45.464 39.6032 45.5326 39.6847C45.6955 39.8782 46.8297 40.671 47.2085 40.9521C47.4611 41.1394 47.6365 41.3771 47.826 41.6239L48.1954 42.0827C48.3491 42.2512 49.1755 41.8518 49.9899 41.9218C50.1489 41.9355 50.6497 42.0002 50.7694 41.9822C50.9446 41.9559 51.1261 41.7589 51.3815 41.7584C51.4497 41.8446 51.4922 41.9835 51.5633 42.0713C51.6049 42.1225 51.6438 42.1411 51.6894 42.1884C51.871 42.3765 51.8919 42.3405 51.9803 42.6279C52.0174 42.7489 52.0528 42.8674 52.0817 42.9922L52.3664 42.8721V43.6389C52.3138 43.7522 52.3796 43.6585 52.2742 43.6875L52.2736 44.2519C52.8508 44.2945 52.7944 44.2418 52.8346 44.7351C52.8464 44.88 52.86 45.024 52.8718 45.169C53.333 45.2533 53.7748 45.1977 54.1796 45.2857C54.303 45.3126 54.2456 45.5105 54.2279 45.5832C54.1757 45.7979 54.8037 46.1818 54.9062 46.044C54.9482 45.9438 54.848 45.9013 54.8407 45.7785C54.8361 45.7007 54.857 45.7004 54.8414 45.6219C54.8219 45.5249 54.7973 45.6213 54.8161 45.492C54.9447 45.4752 54.8547 45.4609 54.9106 45.5193C54.9879 45.6 54.8421 45.5388 54.9568 45.578C55.0739 45.4866 54.9405 45.51 55.0643 45.3751C55.112 45.3232 55.1732 45.293 55.2282 45.2468C55.3552 45.14 55.2443 45.1618 55.3296 45.0574C55.3769 44.9994 55.3502 45.0533 55.415 44.9955C55.4865 44.9316 55.4063 44.9085 55.7273 44.8911C55.6822 44.7761 55.689 44.9295 55.6926 44.7847C55.7871 44.7461 55.7579 44.8043 55.8295 44.7301C55.8901 44.6673 55.8688 44.654 55.9535 44.6092C56.005 44.582 56.0776 44.5624 56.1281 44.5575C56.3194 44.5387 56.126 44.5596 56.3141 44.4676C56.4124 44.4201 56.5767 44.2352 56.6104 44.1497C56.6507 44.0477 56.6208 44.0792 56.7096 44.0134C56.8272 44.0751 56.8135 44.1271 56.9104 44.1789C57.0209 43.8783 57.0654 43.9469 57.1859 43.8709C57.273 43.8159 57.4235 43.7169 57.5435 43.9308L57.4372 44.0027C57.3118 44.0733 57.3216 44.1517 57.1442 44.118L57.1288 44.2702C56.9652 44.2966 57.0007 44.2746 56.9133 44.3773C56.8433 44.4595 56.6934 44.6282 56.6159 44.6652C56.4954 44.7227 56.4795 44.6686 56.4795 44.8064C56.6068 44.8905 56.5887 44.794 56.7512 44.9761C56.9054 44.958 56.7994 44.9146 57.0103 44.895C57.0604 45.0746 57.0776 45.0227 57.0841 45.2671C57.1335 45.2493 57.1321 45.2482 57.1617 45.2074C57.2667 45.3367 57.1845 45.2548 57.3556 45.2823C57.4736 45.3012 57.452 45.2584 57.5764 45.2901L57.7082 45.327C57.7102 45.3225 57.7176 45.3325 57.7267 45.3332L57.7245 45.1175C57.8455 45.0895 57.8318 45.1628 57.9069 45.0556C57.9558 44.9859 57.9691 44.9337 57.9063 44.8604C57.9514 44.8312 57.9586 44.8173 57.9978 44.7881C58.0631 44.8689 58.0147 44.8153 58.015 44.9104C58.1107 44.9515 58.1443 45.0064 58.2152 45.0929C58.1922 45.2395 58.1601 45.1143 58.1708 45.2685C58.2203 45.3027 58.2333 45.3002 58.297 45.3171C58.4366 45.3541 58.3464 45.3256 58.4106 45.3154C58.5434 45.2941 58.4969 45.4327 58.4616 45.5148C58.6201 45.483 58.5935 45.3806 58.7381 45.4757C58.9268 45.5997 58.7811 45.6831 59.0696 45.7015C59.1769 45.7084 59.1621 45.7483 59.2562 45.7411C59.3163 45.7365 59.3827 45.7094 59.4395 45.7549C59.3939 45.8486 59.2223 45.8481 59.1386 45.9195C59.0614 45.9852 59.0852 46.0363 59.0404 46.0715C58.981 46.1183 59.0489 45.9868 58.9234 46.1496C58.8343 46.1065 58.732 46.0341 58.6579 46.03C58.6929 46.1127 58.6782 46.0474 58.7021 46.1439C58.7235 46.2305 58.7367 46.1617 58.7201 46.2978L58.4524 46.1856C58.411 46.2453 58.3621 46.3042 58.3243 46.351C58.2667 46.4224 58.2868 46.4747 58.2895 46.4749C58.2889 46.4778 58.2883 46.4849 58.2864 46.4875C58.1777 46.5648 58.2379 46.4719 58.1442 46.5291C58.0904 46.5618 58.1242 46.5861 58.0232 46.6286C57.9178 46.536 58.0265 46.5952 57.9502 46.4815C57.8561 46.5463 57.9777 46.6057 57.8231 46.5198C57.7551 46.4819 57.8462 46.4959 57.7302 46.4381C57.6839 46.4149 57.4855 46.3767 57.4229 46.3932L57.2711 46.4868L57.2452 46.5123C57.1834 46.5609 56.9861 46.5917 56.896 46.5941C56.8753 46.541 56.8529 46.4374 56.8312 46.388C56.6929 46.3449 56.6853 46.3787 56.6239 46.2413L56.8453 46.0845L57.0529 45.9078C57.0061 45.8282 57.0428 45.8804 56.9466 45.8278C56.9742 45.6785 56.9702 45.7394 56.8715 45.6175C56.8273 45.5629 56.7832 45.4864 56.7129 45.4705C56.6618 45.5511 56.6792 45.6341 56.5987 45.6933C56.4988 45.7669 56.475 45.7055 56.3805 45.7903C56.2205 45.9342 56.1499 45.8347 56.0188 45.9642C55.9821 46.0006 56.0353 45.9675 55.9797 46.001C55.7838 45.891 55.9441 45.8269 55.6792 45.802C55.627 45.913 55.6348 45.8882 55.6269 46.0555L55.5138 46.1197C55.5657 46.2316 55.6119 46.3563 55.5763 46.4437C55.5517 46.5038 55.6117 46.4705 55.5661 46.5764C55.4225 46.5636 55.3326 46.5086 55.1721 46.5513L55.0972 46.573C55.017 46.5899 54.911 46.5957 54.8433 46.6548C54.9802 46.7892 55.1895 46.5562 55.2734 46.6791C55.2444 46.7926 55.1201 46.7411 55.076 46.752C55.1216 46.9329 55.1531 46.817 55.1846 46.9857C55.0658 46.9269 55.1529 46.9377 55.0609 46.8732L55.0783 46.9711C54.951 47.0587 55.0408 47.0074 54.9336 47.0207C54.8574 47.2727 54.9302 47.2181 54.7976 47.4342C54.6651 47.4259 54.4642 47.4208 54.3453 47.3883C53.9683 47.2853 54.1394 47.2003 53.8303 47.3773L53.7223 47.4627C53.7197 47.4653 53.7118 47.4798 53.7098 47.4757L53.7822 47.7006C53.6873 47.7522 53.7156 47.6886 53.6628 47.7735C53.7753 47.9347 53.7324 47.8303 53.8817 47.9016C53.9932 47.9549 53.9385 48.008 53.9848 48.1165C54.1827 48.1244 54.4737 48.0136 54.4678 48.3085C54.4374 48.3373 54.4134 48.346 54.399 48.3594C54.3407 48.4136 54.3802 48.4303 54.3738 48.4648L54.3587 48.5131C54.3255 48.6573 54.3679 48.809 54.4552 48.9066L54.6054 49.0507C54.6899 49.1399 54.6552 49.2025 54.6121 49.3244C54.5302 49.556 54.5905 49.4771 54.4334 49.5602C54.3698 49.5938 54.3844 49.5892 54.3473 49.6676C54.1666 50.0494 54.1122 49.8864 54.082 50.4113C54.0087 50.3997 53.986 50.3824 53.9234 50.372C53.7113 50.3369 53.7642 50.3611 53.5469 50.4337C53.5044 50.3897 53.519 50.3936 53.4668 50.3582C53.3821 50.3007 53.3456 50.2077 53.2298 50.1988C53.0626 50.1859 52.9724 50.2775 52.7906 50.2056C52.8248 50.1223 52.8275 50.156 52.9009 50.0916C52.6515 49.6989 52.8959 49.6428 52.9406 49.476C52.8722 49.365 52.8851 49.3755 52.7428 49.3635C52.5837 49.3501 52.6305 49.3343 52.5363 49.2456C52.4604 49.1742 52.4148 49.198 52.3214 49.1448C52.0644 48.9984 52.1869 49.1192 52.0039 49.0975C51.8986 49.0849 51.7641 49.0185 51.6983 48.9648C51.1576 48.5236 51.2927 48.6934 50.9609 48.4622C50.89 48.4129 50.8275 48.3859 50.7741 48.3325C50.4734 48.0321 50.6323 48.2181 50.4246 48.1691C50.3634 48.1547 50.3093 48.0941 50.2527 48.0517C50.1177 47.9506 50.0365 47.9022 49.9197 47.7758C49.6948 47.5322 49.1724 47.2011 48.8579 46.9891C48.6143 46.825 48.6631 46.5855 48.5923 46.3305C48.5286 46.1011 48.414 46.2117 48.3233 45.9663C48.2998 45.9029 48.2572 45.8113 48.2456 45.7505C48.2218 45.6258 48.2689 45.5769 48.1975 45.4849C48.0665 45.3159 47.9312 45.1156 47.6757 45.138C47.5914 45.2414 47.6748 45.3175 47.5169 45.3143C47.4082 45.3121 47.3669 45.2323 47.2817 45.2127C47.1182 45.1751 46.8266 45.26 46.6775 45.2049C46.598 45.1755 46.3426 44.9814 46.3295 44.8984C46.3066 44.7535 46.4084 44.7618 46.3687 44.6613C46.3177 44.5323 46.2928 44.6257 46.3148 44.4324L46.5256 44.4991C46.5096 44.4261 46.2391 44.2546 46.1804 44.2224C46.2096 44.1472 46.1919 44.2029 46.2178 44.167L46.2492 44.1253C46.1599 43.8819 46.2452 44.07 46.2636 43.9096L46.0877 43.8048L45.8839 43.7964C45.7259 43.7924 45.5807 43.8475 45.497 43.6129C45.4046 43.3539 45.3202 43.5758 45.1341 43.4154L44.8549 43.1257C44.8448 43.174 44.8143 43.2474 44.7902 43.293C44.5739 43.2887 44.5036 43.1841 44.3792 43.3428C44.6438 43.4929 44.5056 43.5031 44.6443 43.6631C44.6916 43.7178 44.6963 43.6883 44.7385 43.7716L44.6431 43.782C44.5895 43.7038 44.6064 43.5988 44.5001 43.5627C44.3846 43.5236 44.3892 43.5798 44.2984 43.5239C44.2375 43.4865 44.3383 43.5271 44.2538 43.4948C44.2167 43.5195 44.1812 43.5576 44.1389 43.5903C44.1809 43.7118 44.1653 43.6952 44.1541 43.8395L44.01 43.9308C44.0084 43.9314 43.9541 43.9471 43.9513 43.9478C43.7944 43.9895 43.6315 43.9117 43.4895 44.0183C43.4093 44.0785 43.4274 44.1072 43.3753 44.1948C43.2921 44.335 43.126 44.2768 43.1874 44.6077C43.2055 44.7056 43.2291 44.7222 43.2451 44.8522C43.2594 44.9683 43.2533 44.9704 43.3512 45.0253C43.3083 45.0673 43.2889 45.0815 43.2538 45.1647L42.2051 45.0911L42.206 40.0282ZM23.4254 39.8049C23.4284 39.8039 23.4247 39.8077 23.4058 39.8196C23.4129 39.8119 23.4224 39.806 23.4254 39.8049ZM85 50C85 30.67 69.33 15 50 15C30.67 15 15 30.67 15 50C15 69.33 30.67 85 50 85C69.33 85 85 69.33 85 50Z" fill="#1B1918"/>
</svg>
