<svg width="166" height="70" viewBox="0 0 166 70" fill="none" xmlns="http://www.w3.org/2000/svg">
<path fill-rule="evenodd" clip-rule="evenodd" d="M1.70487 35C1.70487 16.2492 16.9054 1.04861 35.6562 1.04861C54.4071 1.04861 69.6076 16.2492 69.6076 35C69.6076 53.7508 54.4071 68.9514 35.6562 68.9514C16.9054 68.9514 1.70487 53.7508 1.70487 35ZM13.7021 23.7006C13.9305 24.3221 14.4926 25.1045 14.5471 26.2708L14.3165 26.4331L13.9862 26.6142C12.8816 25.9634 13.1296 26.2598 12.4576 25.2244C11.4387 25.1076 11.2518 25.3299 11.0145 25.1082L10.8135 24.8587C10.289 24.2079 11.2632 23.3052 11.6843 23.018C12.006 22.642 11.86 22.7113 12.332 22.4179C13.0536 22.0318 12.6927 23.0864 12.6585 23.7715C12.9874 23.7194 13.0387 23.6646 13.3943 23.6543C13.4082 23.6274 13.4134 23.5492 13.4159 23.566C13.4201 23.5937 13.374 22.5644 14.3233 22.7459C14.7045 22.9077 14.5705 22.6531 14.4909 23.0713L13.7021 23.7006ZM20.8581 6.96678C21.8519 6.59479 23.0525 6.24733 24.3112 6.24209C24.7525 5.69776 24.517 6.03593 25.244 5.59587C25.6406 5.35566 25.8322 5.06368 26.0671 4.72156L26.3797 4.59979C26.4922 4.42029 26.4359 4.50613 26.5454 4.35888L26.8301 4.02379C26.8391 3.98511 26.8697 3.98165 26.8907 3.96189C26.795 3.90309 26.9506 3.85382 26.4716 3.83276C25.219 3.91917 20.5667 5.99178 19.7381 6.61896C19.8239 6.83215 19.8853 6.9605 19.9382 7.18508L20.3746 7.14306L20.8581 6.96678ZM58.3081 35.0824C58.3513 34.4483 58.4005 33.9316 58.0817 33.362C57.8552 32.9576 58.0321 33.1712 57.7329 32.987C57.4302 33.4735 57.3344 34.8303 58.3081 35.0824ZM20.1302 59.3212C19.3907 60.1641 20.3329 59.8725 19.1059 60.364C18.8088 60.4829 19.0337 60.3353 18.8382 60.499C18.8986 61.0142 19.2039 61.193 19.4921 61.4917C20.0364 62.0561 19.6927 62.0663 20.0321 62.5712C20.2807 62.9408 21.5482 63.8557 22.1226 63.6615C22.2596 63.3364 21.9055 63.0143 21.7258 62.6094C20.8384 60.6108 21.3606 60.7948 21.0583 60.1643C20.8826 59.7975 20.528 59.3957 20.1302 59.3212ZM59.4446 55.2168L57.6574 57.0323C56.931 58.0277 55.9185 58.596 54.9341 59.1827C54.526 59.426 53.8157 60.0037 53.4605 60.1368C53.0464 60.4307 52.9984 60.6988 52.6471 60.9471C52.4809 61.1752 52.3537 61.3963 52.1999 61.5596C51.8575 61.9235 52.0392 61.5834 51.7115 62.1424C51.6213 62.4072 51.6896 62.294 51.4837 62.4734C51.1099 63.329 50.4158 63.6098 49.5707 64.2136C50.1552 64.6265 54.3644 61.6678 55.1577 61.4316C55.8172 61.0638 56.8339 60.1626 57.3958 59.6712C58.0929 59.0616 58.7554 58.3546 59.3886 57.7167C60.4722 56.6247 62.0486 54.753 62.894 53.2844L62.6275 53.1857C62.5871 52.3503 63.3831 51.9093 63.5379 51.2468C63.1432 51.4326 63.5127 51.4828 62.8321 51.6359C62.4332 51.7255 62.5531 51.6985 62.293 52.1395C60.5371 55.1186 60.5332 53.9544 60.0178 54.5112C59.6848 54.8707 59.8403 54.8491 59.4446 55.2168ZM49.2315 51.613C49.5136 51.9542 49.9001 52.3518 50.0488 52.7705C50.1959 53.1847 50.1431 53.3826 50.3922 53.6986C50.7666 54.1739 51.6996 54.427 52.4432 54.3491C52.8425 54.16 52.7191 53.5914 53.3256 52.6053L51.7896 51.8406C51.824 51.5206 51.8605 51.7423 51.9447 51.3572C51.42 51.1573 51.2176 50.9734 50.5696 50.8316C48.9217 50.4713 50.5606 50.1488 47.9885 49.745C47.2209 49.6246 46.7461 49.3839 46.4785 49.9354C46.5041 49.9541 46.5477 49.9421 46.5624 49.9798C46.577 50.0174 46.627 50.0136 46.6475 50.0216C46.7636 50.0662 46.7847 50.0762 46.9152 50.1134C48.2561 50.4947 47.5436 50.522 48.0845 50.9028C48.6851 51.3257 48.4239 50.6364 49.2315 51.613ZM55.0311 49.6673C54.4371 50.4831 55.1934 51.0364 55.2382 51.2482C55.299 51.5344 55.1424 51.532 55.1814 52.0537L55.4824 52.1462L55.9567 51.998C56.6021 51.2534 57.9948 52.3081 58.2319 50.6357C58.3652 49.6962 58.5812 50.0787 58.8605 49.4099C58.978 49.1286 58.9682 48.8742 59.044 48.6714C59.2484 48.1252 59.1779 48.5851 59.5476 48.0781C59.2907 47.702 59.0283 47.5526 59.199 47.1019C59.4042 46.5602 59.2319 46.9855 59.414 46.7904L59.8155 45.5242C59.5472 45.1563 59.302 44.9499 58.7454 44.794C58.4157 45.8421 58.3007 46.1398 57.6508 46.807C57.0354 47.4387 57.0624 47.7997 56.2512 48.36L55.7907 49.2432C55.5414 49.4456 55.2624 49.3498 55.0311 49.6673ZM60.7972 49.4566C60.628 48.5476 60.9505 48.9078 61.2331 48.1526C60.2744 48.249 60.9302 48.7798 60.2534 48.7191C60.0318 48.2115 60.2001 48.0869 60.3917 47.6908C61.482 47.4424 62.0833 47.6072 62.2068 46.3128C62.181 46.331 62.1445 46.3308 62.1332 46.3726C62.122 46.414 62.0768 46.4189 62.0617 46.4329L61.702 46.7993C60.8965 47.542 60.2416 46.9115 59.976 48.2043C59.6064 50.0039 59.5636 48.348 59.2642 51.5795C60.2688 51.1951 59.739 50.4468 60.0815 49.7899L60.3098 50.5273C60.3757 50.7391 60.352 50.6822 60.4299 50.8035C61.0928 50.4746 60.9342 50.193 60.7972 49.4566ZM65.8994 44.8278C65.546 45.3665 65.2796 46.1122 64.9065 46.6159C64.7148 45.9011 64.7748 46.2746 64.8308 45.5347C64.3783 45.8273 64.0119 46.1011 63.8201 46.569C64.025 47.0018 63.8467 46.6333 64.2387 46.9173L64.1686 47.586L65.1483 47.2696C65.1608 47.9013 64.9197 48.325 64.744 48.6996C65.0538 48.6463 65.1514 48.6119 65.3644 48.3669C65.5434 48.161 65.6291 47.9234 65.7251 47.6748L65.8148 47.8528L66.7245 45.3044L66.6363 44.7637L66.0935 44.7994L65.8994 44.8278ZM59.1484 39.3961C59.2422 39.5531 59.5245 39.4518 59.7134 39.9641C59.8564 40.3518 59.6433 40.3973 60.1976 40.6588L60.2595 39.9135C61.0062 39.7038 60.8908 40.0424 61.3994 40.4232C61.8189 40.713 61.5139 40.9889 60.8647 40.8521L60.6526 40.9845L60.7085 41.4888L61.3589 42.2001L61.797 41.808C61.7954 41.088 61.6901 41.6106 61.5371 40.931L61.9401 40.8054C62.0649 41.478 62.3905 41.8945 61.7723 42.3438C61.6696 42.4184 61.1003 42.4326 61.0304 43.8019C61.4292 43.4262 61.0607 43.3624 61.6304 43.2799C61.7103 43.0754 61.5033 43.1331 61.781 43.1073C61.8239 43.6613 61.891 43.9108 62.3848 43.9919C62.4295 43.5275 62.3454 43.5414 62.4994 43.1736C62.5937 42.9484 62.7232 43.1626 62.6581 42.2781C62.5019 40.1579 62.2944 41.7708 62.1126 40.6303L62.0172 40.6433L62.0422 40.0605C61.7132 39.7238 61.6321 39.766 61.2616 39.9329C61.4522 38.4543 60.9359 39.4977 60.152 39.1912C59.9334 38.3112 60.2836 36.6153 59.2262 36.7702C59.152 36.9596 59.0909 39.0587 59.1484 39.3961ZM9.06204 24.8196C9.04694 24.8359 9.04244 24.86 9.13288 24.862L9.71376 24.8614C9.78052 26.0637 8.91385 26.5227 9.55722 27.817L9.80172 28.2318C10.1857 28.1434 9.94609 28.2021 10.2586 28.0442L10.7506 28.7761L11.7493 28.6555C11.6509 29.693 11.0499 30.9825 10.4241 31.502L10.2851 31.7344C9.67424 31.6883 9.66731 31.406 9.13334 31.2121C8.42213 30.9539 8.44236 31.1724 8.16144 30.4342L7.16774 28.6306C6.67209 28.6807 6.65936 28.7341 6.38999 28.9321C6.38389 28.975 6.37165 29.1721 6.35761 29.2083C6.23632 29.5204 6.28881 29.3784 6.12204 29.5629C5.92039 29.0287 5.64877 28.7953 5.66638 28.2188C5.62412 26.7636 5.19715 26.3913 5.81374 25.0509C6.84587 22.8071 5.89504 23.9033 5.82898 22.3848L5.49497 22.3704C2.28191 30.8757 1.84815 38.3142 5.11419 47.0678C7.26357 52.8284 11.4836 58.1593 16.2422 61.5988C16.7112 61.9378 17.9443 62.8225 18.4614 63.0438C18.6332 62.9301 18.6021 63.0305 18.4741 62.8479C17.6281 62.335 17.9357 62.4212 17.4352 61.678C17.1248 61.2169 16.5121 61.1207 16.4109 60.499C16.6573 59.9754 16.7599 60.2302 17.094 59.8025C16.7918 58.7195 15.2992 57.2107 14.9988 56.5336L14.6542 56.0422C14.0756 55.5604 13.8873 54.3261 14.2838 53.6063C14.7002 52.8505 15.1731 52.3039 15.8603 51.8166C16.6529 51.2546 17.8565 48.5002 17.8488 47.1438L17.8567 46.5618L17.2432 46.4757C16.9174 46.6499 15.962 46.5987 15.1306 46.5869C14.3396 46.5757 13.9245 46.4149 13.7954 45.7416C13.7489 44.8009 11.9036 42.8763 11.5473 42.0415C11.342 41.5602 11.3188 41.0601 11.0861 40.5268C10.8202 39.9173 10.9366 39.4735 10.7898 38.8328C10.6039 38.0207 9.54139 34.9241 9.94288 34.0781C11.1975 34.4306 11.2304 37.7487 12.1778 40.2454C12.3282 40.6414 12.3414 40.8906 12.5496 41.2691C12.7625 41.6565 12.9422 41.8041 13.0832 42.274C13.0624 42.2815 13.0258 42.2593 13.0176 42.2833C12.8618 42.734 12.9748 42.2824 12.8797 42.3086L12.6518 42.39C13.5317 44.0759 13.4913 44.5455 13.837 45.1869C14.3617 45.2619 14.2897 45.2923 14.7262 45.1336C15.0056 45.0322 14.9519 44.7975 15.3167 45.1222C15.8235 45.052 17.3965 44.6527 17.7681 44.4474C18.3721 44.1136 17.9359 43.9301 18.5551 43.7369C19.2232 43.5285 19.3691 43.8284 19.7008 43.2331C19.9251 42.9635 19.7522 43.1259 20.0212 42.9892C20.4914 42.9852 20.3748 42.9932 20.5974 42.7503C21.085 42.2416 21.0474 42.7357 21.1182 41.8096C21.5082 41.5273 21.4384 41.6795 21.6379 41.2069C22.0351 40.2658 22.8057 40.3942 20.685 39.1263C20.0924 38.9957 20.0701 38.3444 20.1515 37.7618C18.9903 37.9037 19.3313 38.8476 17.6952 38.6664C17.5603 38.1847 17.639 37.6516 17.3869 37.4955C17.0394 37.2804 17.1687 37.535 17.1664 37.5369C16.7899 37.4043 16.9036 37.5107 16.6811 37.0203C16.5752 36.7865 16.5048 36.6047 16.406 36.3591C16.1838 35.8066 15.965 35.501 16.018 34.8923C16.9216 33.6836 17.2558 35.408 17.6836 36.1357C17.9553 36.5976 18.1499 36.8402 18.5871 37.0838C19.3776 37.5239 19.5034 37.2216 20.1802 37.1671L20.4161 37.2231L20.6784 37.9735L22.772 38.527C23.6272 38.7484 25.2729 38.6215 25.7797 38.8269C26.3998 39.0783 26.8638 39.9694 27.8695 40.2582C27.519 41.5173 28.8062 41.7125 29.2565 41.531C29.6779 41.3611 29.4616 41.2012 29.7697 40.9531L30.3505 42.6243C30.7991 44.0015 32.282 47.2473 32.3105 47.4007C32.6541 47.6333 32.5945 47.5331 32.6503 47.967C33.274 48.4287 33.439 49.5437 34.5312 49.6069C35.065 49.3155 35.0772 48.8939 35.8088 49.0066C36.0727 49.5686 35.829 50.1072 36.359 50.5621C36.9947 50.6909 37.3292 50.2492 37.4224 49.5872C35.997 47.8303 36.2384 48.944 35.4694 48.6585C35.449 48.1081 35.7971 48.4307 35.7424 47.1991C35.6606 46.6103 35.6268 46.0116 35.5503 45.4164C35.4523 44.6544 35.7295 44.7887 36.1021 44.1647C36.6776 43.9919 37.2752 43.0806 37.8174 42.7216L37.9928 42.4995C38.5216 41.6719 38.8708 42.0743 39.2198 40.9072C39.5532 39.7921 40.2094 40.9721 41.0038 40.0102L42.0695 39.6251C42.41 39.9197 42.4598 39.9995 42.68 40.2814C42.7839 40.4145 42.8408 40.5145 42.9898 40.6752C43.2803 40.9884 42.9828 40.8319 43.369 40.9439L44.3771 41.8323C44.8275 42.1876 44.6002 42.886 44.9293 43.2541C45.5517 43.8122 46.4229 42.6474 46.7257 42.4062C47.448 43.0321 47.7184 44.4393 48.2128 45.338L48.3694 45.8227C48.1678 46.2225 48.1944 47.1458 48.3231 47.7298C48.4525 47.7967 48.4076 47.7501 48.6049 47.8095C49.0597 47.9464 49.5644 48.3779 49.8627 48.7707C50.3235 49.3774 49.6596 49.5715 51.0568 50.2415C51.9821 50.685 51.6858 50.8036 52.1583 50.931C52.3972 50.4418 52.1297 49.9069 51.8527 49.4525C51.7045 49.2094 51.0673 48.2941 50.9267 48.1761C50.0277 47.4214 49.7153 48.5706 49.1421 45.664L49.1271 45.5371L49.0503 45.1084C49.0161 44.5577 48.9882 44.3851 49.2806 44.051C49.6945 44.2017 49.3775 44.024 49.6292 44.4265C50.2364 44.4148 50.2619 44.3447 50.5681 44.7207L51.2488 45.1162C51.7493 45.3695 51.5546 45.397 52.259 45.4675L52.2365 46.2708C52.9628 46.0903 52.9233 45.2028 54.2341 44.1735L54.5137 43.4886C54.3272 42.0209 54.1671 41.6568 53.1955 41.0376C52.4089 40.5362 51.413 40.2255 51.4285 39.252C51.6014 38.6986 52.2143 37.4462 52.9368 37.6963C53.4476 37.8731 53.0099 38.0654 53.5777 38.2078C53.866 37.6895 53.4668 37.0505 54.6251 37.0089C54.7833 36.6633 54.7458 36.6265 55.0942 36.4105C55.2818 35.9524 55.8763 35.7793 56.1217 35.3085C56.5465 34.4931 56.8801 32.6107 56.6765 31.3853C56.3493 29.4167 56.3807 30.1589 55.9441 30.3055L55.8767 30.0036C55.6921 29.4993 55.854 29.9483 55.5257 29.5369C55.0445 29.2463 55.2443 29.1683 54.7062 28.9411L54.6217 28.8267C54.2325 28.573 53.5082 28.3359 53.2407 28.1117C53.2323 27.7023 53.1796 26.8765 53.6307 26.6741C53.5433 26.2605 53.7303 26.5227 53.4617 26.3115C52.9422 26.3868 52.9296 26.3289 52.674 26.617C52.5419 26.726 52.4733 26.7977 52.2836 26.9526L51.9492 26.6992C50.8626 26.6919 51.1998 26.2972 51.3732 25.5848C51.4412 25.0581 51.349 24.967 51.8553 24.9919C51.9399 25.2083 51.9845 25.3038 52.1065 25.519L52.4164 25.923L52.8029 25.419C52.8391 25.0818 52.7297 25.3322 52.944 25.041C54.0855 24.9298 53.269 25.8786 54.5793 25.7776L55.056 25.7844C55.279 26.3723 55.804 26.9781 56.1142 27.2864C56.3357 27.1992 56.2284 27.2466 56.4171 27.1193C58.2853 25.8595 54.8624 24.8631 54.3987 24.6293C54.3376 24.0037 54.5663 24.003 54.3282 23.5344C54.1037 23.0925 54.034 23.1694 53.9924 22.5398C54.3003 22.2109 55.0011 22.4336 54.6419 21.3745C53.9772 19.4152 52.4998 18.3288 52.3435 18.0634C51.9328 18.047 52.0741 18.0918 51.8162 17.7372C51.5161 17.6221 50.6743 16.8836 49.8314 16.9031C49.3716 16.9138 49.3835 17.2652 49.3423 17.1842C49.3311 17.1625 49.3028 17.2372 49.2806 17.2616C48.9442 17.082 48.8378 16.9569 48.6667 16.991C48.6517 16.9939 48.6223 17.0102 48.6055 17.0146L48.0751 17.1271C47.7146 15.8394 46.4672 14.4934 48.3184 14.2297C48.9585 14.1518 49.1471 14.089 49.5081 13.7174C49.399 13.5996 49.3394 13.5633 49.1784 13.4631C48.8419 13.2544 48.489 13.1453 48.4112 12.7235C48.8829 12.5592 48.841 12.6768 49.2917 12.7744C49.2092 12.3739 49.1537 12.4878 49.0116 12.0771C50.0902 12.5074 50.1359 13.6221 51.5289 14.2525C52.4798 14.6827 54.0699 15.1101 54.8375 15.5487L55.0815 15.3575C54.695 15.1457 54.4007 14.8662 54.0382 14.5326C53.5787 14.1099 53.736 13.9896 53.0549 13.6595C51.267 12.7928 51.4234 13.3592 50.5723 12.4406C50.7538 12.0139 50.7256 11.927 51.2513 11.8005C50.8919 11.5388 50.8561 11.5685 50.6746 11.125C50.018 10.6157 50.5557 10.785 50.326 10.3709C49.4413 10.2137 49.4562 10.4845 48.8354 9.88669C48.8559 9.86621 48.8897 9.84491 48.9056 9.83562C49.4499 9.51649 49.4281 9.76241 49.8408 9.42233C49.401 8.82121 48.5759 9.25403 47.7264 9.31509L47.4531 9.38401C46.3212 9.60292 45.7783 9.74003 44.7286 10.0531L45.2571 10.3784L41.7298 11.0602L39.5976 11.1457L38.8271 11.3117C38.9425 11.6877 38.8352 11.3613 39.0366 11.7085C38.3212 11.8837 37.5135 12.1623 36.9327 11.981C36.5918 11.8993 35.8464 11.552 35.6126 11.6276C35.2194 11.7547 35.8892 11.8292 35.0157 11.9083C34.6137 11.9448 34.4516 11.818 33.9512 11.818C33.3678 11.9945 33.7681 11.7265 33.2755 11.7696C32.7539 11.8151 33.3343 11.8573 32.6506 11.9995C32.8801 11.5655 33.0681 11.6638 33.103 11.1692C32.6045 10.8179 32.3896 11.055 31.8619 10.7994C31.4396 10.5949 31.3622 10.5204 30.9304 10.8155C28.5479 11.4053 29.3191 11.5577 28.4877 11.8518C28.3058 11.9162 28.4675 11.8109 28.2211 11.9389C27.9694 12.0699 28.1171 12.1061 27.6701 12.2681L26.9142 12.253C26.7891 12.4478 26.6495 12.7762 26.664 13.1491C26.6918 13.8649 26.5005 13.5229 27.0546 13.6675C26.4599 14.0009 26.963 14.3326 26.212 14.5996C26.212 14.5992 26.81 13.1925 26.6515 11.7937L26.206 11.9383C26.0781 12.26 26.2748 12.0673 25.8878 12.3553C25.3234 12.9667 25.5452 12.9614 25.6428 13.7637C25.1771 13.5639 25.1945 13.3969 24.8773 13.1544C24.4809 12.8514 24.5486 13.0673 24.2822 12.6055C24.0134 13.0457 24.3341 12.4834 24.1424 13.0776L24.0789 13.2434C23.6711 13.034 23.8964 13.1716 23.4286 13.1818C22.78 13.1958 22.414 12.8535 21.7555 13.3516C21.421 13.1496 21.6828 13.4284 21.8691 12.6723C21.4486 12.6719 21.3345 12.7905 21.037 13.453C19.9919 13.5759 20.4453 13.5759 19.7818 13.8289C19.3011 13.3639 19.3867 13.7533 19.5101 12.9838C20.3748 13.2446 19.9589 13.5288 21.0401 12.931L20.7113 11.968L20.695 11.6604C20.4244 11.0888 20.6324 11.4959 20.8285 10.8873L20.4611 10.7997C20.2588 10.5389 20.4114 10.6006 20.0062 10.5113C18.9956 10.2885 18.7161 10.6514 17.5606 11.1418C17.247 11.2749 16.9824 11.5017 16.7369 11.6054C16.4009 11.7474 15.1051 11.2889 13.6953 13.4233C13.766 13.6673 13.9087 13.5887 14.0699 13.7174C13.8653 14.0825 13.5448 14.5348 13.2094 14.7237C13.3199 14.2416 13.3783 14.6378 13.4133 14.0668C12.7404 14.2659 12.7747 14.7988 12.2213 15.1151C11.712 15.4063 11.8249 14.9255 10.9092 15.5484C10.9015 15.1376 10.8999 15.3763 11.2209 15.0382C11.4665 14.7798 11.3759 14.8314 11.6064 14.4899C11.8354 14.1506 12.2214 13.7643 12.4384 13.4693C12.905 13.0789 13.4778 12.5003 14.0476 11.9721C13.8284 11.7703 14.0573 11.8391 13.6652 11.8731C13.6333 11.8759 13.3704 11.999 13.3367 12.0209C12.3407 12.6673 12.4614 12.4764 12.1416 12.6927C11.838 12.8981 12.0347 12.8974 11.5894 13.1042L10.8725 13.822L10.9041 13.9582C10.8893 14.1622 10.9441 13.9742 10.8667 14.1877C10.6299 14.8408 10.7158 14.0506 10.4626 15.0957C10.3501 15.5603 10.5964 15.2346 10.198 15.5732C9.17345 15.7878 9.46259 16.8404 8.10001 18.0905L8.19487 17.4618C7.59245 18.0315 6.47522 20.2238 6.04348 21.2064L6.1418 21.2898C6.61602 21.3447 6.28547 20.8589 7.28356 20.0251C7.50878 19.8369 7.47819 19.7887 7.70352 19.5216L8.23584 20.0614C8.25608 20.0721 8.29998 20.0826 8.32702 20.102C8.10395 20.7799 7.80743 21.3305 7.75088 22.0932C7.67126 23.1663 7.73433 23.5857 7.2319 24.2612C6.87171 24.2077 6.89636 23.9721 6.72971 23.8977L6.70697 25.0422L7.14858 24.6693C8.30117 23.7775 7.51329 23.3329 8.25058 23.6832C8.25597 23.6859 8.28047 23.7056 8.29582 23.7006C8.45782 22.0462 8.02574 20.8505 9.18941 19.9159C9.10714 20.4496 8.85541 20.8005 8.76779 21.3854C8.67448 22.0086 8.80386 22.7433 8.6828 23.3014C8.55484 23.8915 8.22309 23.9707 8.1706 24.7543C8.14405 25.1492 8.21309 25.2695 8.16975 25.6566C8.13369 25.9789 8.0318 26.1711 8.07263 26.5866C9.05156 26.4518 8.95121 25.0638 8.9893 24.8614C9.02478 24.842 9.04777 24.8285 9.06204 24.8196ZM19.1555 27.5348L19.2622 27.9922L18.9085 28.0441C18.9003 28.044 18.6216 28.006 18.5201 28.0033C18.4007 28.9121 18.7132 28.5232 18.8898 29.1085C18.9626 29.35 18.8155 29.9478 18.841 30.4217C17.222 30.5578 17.6971 30.2549 17.2439 29.8336C16.9451 29.5558 17.1044 29.9013 16.7712 29.5048C16.6099 29.0829 17.0363 28.891 17.1645 28.6357L17.5541 27.9957C17.0448 26.5323 16.7372 26.9076 16.8857 25.8269C16.992 25.0529 16.8649 25.7769 16.7985 25.1005C17.1898 24.6488 17.1792 24.764 17.7673 24.4876C18.3409 24.2181 18.2938 23.9532 18.9269 24.1305C19.2551 24.6683 19.2826 24.4594 18.8994 25.1408C18.2631 25.1314 18.4399 25.181 17.9735 25.4135C18.1193 26.7503 18.803 26.1791 18.4789 27.5989C18.9489 27.4338 18.7011 27.4456 19.0439 27.3262L19.1555 27.5348ZM16.6203 14.8349C16.3269 15.6677 16.2444 14.8568 15.3459 14.9956C15.1878 15.3391 15.2169 15.4209 14.9628 15.7543C14.604 15.7188 14.9351 15.6467 14.5555 15.4742C13.8499 15.8778 14.0205 16.3723 13.1619 16.5507C13.1542 16.527 13.1507 16.4621 13.1486 16.4772L13.0458 16.0997L12.4622 16.1342L12.4835 15.7449C12.4709 15.5097 12.1618 15.8014 12.5285 15.5084C12.7736 15.3125 12.762 15.431 12.963 15.4231L13.1356 15.4227C13.7929 15.3716 13.7728 15.194 14.1645 14.8353C14.5653 14.4683 14.5363 14.6218 14.9908 14.3921C15.4564 14.1566 15.273 14.0618 15.5411 13.6544C16.022 12.9239 16.8636 12.8576 17.1821 12.7491C17.593 12.6092 17.4585 12.4696 18.0398 12.2824C18.4472 12.5048 18.1626 12.2652 18.2451 12.6021L18.1694 12.6273C17.4739 12.8845 15.7437 13.3435 15.6837 14.6487L16.6203 14.8349ZM27.8623 25.0282C28.6152 24.8364 29.6506 24.3936 30.4103 24.1982C30.5067 24.1734 30.5101 24.1837 30.5757 24.2259L30.9492 24.4865C31.0491 24.5568 31.1203 24.6032 31.1889 24.6847C31.3518 24.8782 32.486 25.671 32.8648 25.9521C33.1173 26.1394 33.2928 26.3771 33.4823 26.6239L33.8516 27.0827C34.0053 27.2512 34.8317 26.8518 35.6461 26.9218C35.8051 26.9355 36.3059 27.0002 36.4257 26.9822C36.6009 26.9559 36.7824 26.7589 37.0377 26.7584C37.1059 26.8446 37.1484 26.9835 37.2196 27.0713C37.2611 27.1225 37.3 27.1411 37.3457 27.1884C37.5272 27.3765 37.5482 27.3405 37.6365 27.6279C37.6737 27.7489 37.7091 27.8674 37.738 27.9922L38.0227 27.8721V28.6389C37.9701 28.7522 38.0359 28.6585 37.9305 28.6875L37.9298 29.2519C38.5071 29.2945 38.4506 29.2418 38.4909 29.7351C38.5027 29.88 38.5163 30.024 38.528 30.169C38.9892 30.2533 39.431 30.1977 39.8359 30.2857C39.9592 30.3126 39.9018 30.5105 39.8842 30.5832C39.8319 30.7979 40.46 31.1818 40.5625 31.044C40.6044 30.9438 40.5043 30.9013 40.497 30.7785C40.4924 30.7007 40.5133 30.7004 40.4976 30.6219C40.4781 30.5249 40.4536 30.6213 40.4724 30.492C40.601 30.4752 40.511 30.4609 40.5668 30.5193C40.6442 30.6 40.4984 30.5388 40.613 30.578C40.7301 30.4866 40.5967 30.51 40.7206 30.3751C40.7682 30.3232 40.8295 30.293 40.8844 30.2468C41.0115 30.14 40.9005 30.1618 40.9858 30.0574C41.0331 29.9994 41.0064 30.0533 41.0712 29.9955C41.1428 29.9316 41.0625 29.9085 41.3836 29.8911C41.3384 29.7761 41.3453 29.9295 41.3489 29.7847C41.4434 29.7461 41.4142 29.8043 41.4857 29.7301C41.5464 29.6673 41.525 29.654 41.6098 29.6092C41.6612 29.582 41.7339 29.5624 41.7844 29.5575C41.9757 29.5387 41.7823 29.5596 41.9704 29.4676C42.0687 29.4201 42.233 29.2352 42.2666 29.1497C42.3069 29.0477 42.277 29.0792 42.3658 29.0134C42.4835 29.0751 42.4698 29.1271 42.5666 29.1789C42.6771 28.8783 42.7217 28.9469 42.8422 28.8709C42.9293 28.8159 43.0797 28.7169 43.1997 28.9308L43.0934 29.0027C42.9681 29.0733 42.9779 29.1517 42.8004 29.118L42.785 29.2702C42.6215 29.2966 42.657 29.2746 42.5696 29.3773C42.4996 29.4595 42.3496 29.6282 42.2722 29.6652C42.1517 29.7227 42.1358 29.6686 42.1357 29.8064C42.2631 29.8905 42.245 29.794 42.4075 29.9761C42.5616 29.958 42.4557 29.9146 42.6665 29.895C42.7166 30.0746 42.7339 30.0227 42.7404 30.2671C42.7897 30.2493 42.7883 30.2482 42.8179 30.2074C42.9229 30.3367 42.8407 30.2548 43.0118 30.2823C43.1299 30.3012 43.1083 30.2584 43.2327 30.2901L43.3645 30.327C43.3665 30.3225 43.3739 30.3325 43.3829 30.3332L43.3807 30.1175C43.5018 30.0895 43.488 30.1628 43.5632 30.0556C43.612 29.9859 43.6253 29.9337 43.5625 29.8604C43.6077 29.8312 43.6148 29.8173 43.6541 29.7881C43.7194 29.8689 43.6709 29.8153 43.6713 29.9104C43.7669 29.9515 43.8005 30.0064 43.8715 30.0929C43.8484 30.2395 43.8164 30.1143 43.827 30.2685C43.8765 30.3027 43.8896 30.3002 43.9532 30.3171C44.0929 30.3541 44.0027 30.3256 44.0669 30.3154C44.1997 30.2941 44.1531 30.4327 44.1179 30.5148C44.2763 30.483 44.2498 30.3806 44.3944 30.4757C44.5831 30.5997 44.4374 30.6831 44.7259 30.7015C44.8331 30.7084 44.8184 30.7483 44.9124 30.7411C44.9725 30.7365 45.039 30.7094 45.0957 30.7549C45.0502 30.8486 44.8786 30.8481 44.7948 30.9195C44.7176 30.9852 44.7414 31.0363 44.6967 31.0715C44.6373 31.1183 44.7051 30.9868 44.5796 31.1496C44.4906 31.1065 44.3882 31.0341 44.3141 31.03C44.3492 31.1127 44.3345 31.0474 44.3583 31.1439C44.3797 31.2305 44.3929 31.1617 44.3764 31.2978L44.1087 31.1856C44.0672 31.2453 44.0183 31.3042 43.9806 31.351C43.923 31.4224 43.9431 31.4747 43.9458 31.4749C43.9451 31.4778 43.9446 31.4849 43.9426 31.4875C43.8339 31.5648 43.8942 31.4719 43.8004 31.5291C43.7467 31.5618 43.7804 31.5861 43.6795 31.6286C43.574 31.536 43.6827 31.5952 43.6065 31.4815C43.5124 31.5463 43.6339 31.6057 43.4794 31.5198C43.4114 31.4819 43.5025 31.4959 43.3865 31.4381C43.3401 31.4149 43.1418 31.3767 43.0791 31.3932L42.9273 31.4868L42.9014 31.5123C42.8396 31.5609 42.6423 31.5917 42.5522 31.5941C42.5316 31.541 42.5092 31.4374 42.4874 31.388C42.3492 31.3449 42.3416 31.3787 42.2801 31.2413L42.5015 31.0845L42.7091 30.9078C42.6624 30.8282 42.6991 30.8804 42.6028 30.8278C42.6305 30.6785 42.6264 30.7394 42.5278 30.6175C42.4835 30.5629 42.4394 30.4864 42.3691 30.4705C42.3181 30.5511 42.3355 30.6341 42.255 30.6933C42.1551 30.7669 42.1312 30.7055 42.0368 30.7903C41.8767 30.9342 41.8062 30.8347 41.6751 30.9642C41.6383 31.0006 41.6915 30.9675 41.6359 31.001C41.44 30.891 41.6004 30.8269 41.3355 30.802C41.2833 30.913 41.2911 30.8882 41.2832 31.0555L41.1701 31.1197C41.2219 31.2316 41.2682 31.3563 41.2325 31.4437C41.208 31.5038 41.2679 31.4705 41.2224 31.5764C41.0788 31.5636 40.9889 31.5086 40.8283 31.5513L40.7534 31.573C40.6732 31.5899 40.5673 31.5957 40.4995 31.6548C40.6365 31.7892 40.8457 31.5562 40.9296 31.6791C40.9006 31.7926 40.7763 31.7411 40.7323 31.752C40.7778 31.9329 40.8094 31.817 40.8409 31.9857C40.7221 31.9269 40.8091 31.9377 40.7172 31.8732L40.7346 31.9711C40.6073 32.0587 40.6971 32.0074 40.5899 32.0207C40.5137 32.2727 40.5864 32.2181 40.4539 32.4342C40.3213 32.4259 40.1204 32.4208 40.0015 32.3883C39.6246 32.2853 39.7956 32.2003 39.4866 32.3773L39.3786 32.4627C39.3759 32.4653 39.368 32.4798 39.3661 32.4757L39.4384 32.7006C39.3436 32.7522 39.3718 32.6886 39.319 32.7735C39.4315 32.9347 39.3886 32.8303 39.5379 32.9016C39.6495 32.9549 39.5947 33.008 39.6411 33.1165C39.8389 33.1244 40.13 33.0136 40.124 33.3085C40.0936 33.3373 40.0696 33.346 40.0553 33.3594C39.9969 33.4136 40.0365 33.4303 40.03 33.4648L40.015 33.5131C39.9818 33.6573 40.0242 33.809 40.1114 33.9066L40.2617 34.0507C40.3462 34.1399 40.3114 34.2025 40.2683 34.3244C40.1865 34.556 40.2468 34.4771 40.0897 34.5602C40.0261 34.5938 40.0406 34.5892 40.0035 34.6676C39.8229 35.0494 39.7685 34.8864 39.7383 35.4113C39.6649 35.3997 39.6422 35.3824 39.5797 35.372C39.3675 35.3369 39.4204 35.3611 39.2032 35.4337C39.1607 35.3897 39.1753 35.3936 39.1231 35.3582C39.0384 35.3007 39.0018 35.2077 38.886 35.1988C38.7189 35.1859 38.6286 35.2775 38.4469 35.2056C38.4811 35.1223 38.4838 35.156 38.5572 35.0916C38.3078 34.6989 38.5522 34.6428 38.5968 34.476C38.5285 34.365 38.5413 34.3755 38.399 34.3635C38.24 34.3501 38.2868 34.3343 38.1926 34.2456C38.1167 34.1742 38.0711 34.198 37.9777 34.1448C37.7207 33.9984 37.8431 34.1192 37.6602 34.0975C37.5549 34.0849 37.4203 34.0185 37.3545 33.9648C36.8138 33.5236 36.9489 33.6934 36.6171 33.4622C36.5463 33.4129 36.4837 33.3859 36.4304 33.3325C36.1296 33.0321 36.2885 33.2181 36.0809 33.1691C36.0197 33.1547 35.9655 33.0941 35.9089 33.0517C35.774 32.9506 35.6927 32.9022 35.576 32.7758C35.351 32.5322 34.8287 32.2011 34.5142 31.9891C34.2706 31.825 34.3193 31.5855 34.2485 31.3305C34.1848 31.1011 34.0702 31.2117 33.9795 30.9663C33.9561 30.9029 33.9135 30.8113 33.9019 30.7505C33.878 30.6258 33.9252 30.5769 33.8538 30.4849C33.7227 30.3159 33.5875 30.1156 33.332 30.138C33.2477 30.2414 33.331 30.3175 33.1732 30.3143C33.0645 30.3121 33.0231 30.2323 32.938 30.2127C32.7744 30.1751 32.4828 30.26 32.3337 30.2049C32.2543 30.1755 31.9988 29.9814 31.9857 29.8984C31.9629 29.7535 32.0647 29.7618 32.0249 29.6613C31.974 29.5323 31.9491 29.6257 31.9711 29.4324L32.1818 29.4991C32.1659 29.4261 31.8954 29.2546 31.8367 29.2224C31.8658 29.1472 31.8482 29.2029 31.874 29.167L31.9054 29.1253C31.8161 28.8819 31.9015 29.07 31.9199 28.9096L31.7439 28.8048L31.5402 28.7964C31.3822 28.7924 31.237 28.8475 31.1532 28.6129C31.0608 28.3539 30.9765 28.5758 30.7904 28.4154L30.5112 28.1257C30.5011 28.174 30.4706 28.2474 30.4465 28.293C30.2301 28.2887 30.1599 28.1841 30.0354 28.3428C30.3001 28.4929 30.1618 28.5031 30.3005 28.6631C30.3478 28.7178 30.3526 28.6883 30.3947 28.7716L30.2993 28.782C30.2457 28.7038 30.2626 28.5988 30.1563 28.5627C30.0409 28.5236 30.0455 28.5798 29.9547 28.5239C29.8937 28.4865 29.9945 28.5271 29.9101 28.4948C29.873 28.5195 29.8375 28.5576 29.7952 28.5903C29.8372 28.7118 29.8216 28.6952 29.8104 28.8395L29.6663 28.9308C29.6647 28.9314 29.6104 28.9471 29.6076 28.9478C29.4507 28.9895 29.2878 28.9117 29.1458 29.0183C29.0655 29.0785 29.0836 29.1072 29.0316 29.1948C28.9483 29.335 28.7822 29.2768 28.8436 29.6077C28.8618 29.7056 28.8853 29.7222 28.9014 29.8522C28.9157 29.9683 28.9096 29.9704 29.0074 30.0253C28.9646 30.0673 28.9452 30.0815 28.9101 30.1647L27.8613 30.0911L27.8623 25.0282ZM9.08162 24.8049C9.08461 24.8039 9.08097 24.8077 9.06204 24.8196C9.06918 24.8119 9.07866 24.806 9.08162 24.8049ZM70.6562 35C70.6562 15.67 54.9862 0 35.6562 0C16.3263 0 0.65625 15.67 0.65625 35C0.65625 54.33 16.3263 70 35.6562 70C54.9862 70 70.6562 54.33 70.6562 35Z" fill="#1B1918"/>
<path fill-rule="evenodd" clip-rule="evenodd" d="M87.795 26.0593C87.5275 25.6863 87.1849 25.3945 86.7674 25.1837C86.3498 24.9729 85.9059 24.8675 85.4357 24.8675C84.6412 24.8675 83.948 25.1269 83.3561 25.6458C83.0399 25.9215 82.7886 26.262 82.6021 26.6674C82.4156 27.0727 82.3224 27.4862 82.3224 27.9078C82.3224 28.2889 82.3974 28.6639 82.5474 29.0328C82.6973 29.4017 82.9102 29.724 83.1858 29.9996C83.8182 30.6725 84.5925 31.009 85.5087 31.009C86.0357 31.009 86.5444 30.859 87.0349 30.559C87.5254 30.2591 87.8923 29.8699 88.1355 29.3915H84.3777V27.8227H90.2395V28.0173C90.2395 29.3145 89.7692 30.407 88.8287 31.2948C87.8883 32.1826 86.7654 32.6265 85.46 32.6265C84.1547 32.6265 83.0277 32.1765 82.0791 31.2766C81.1305 30.3766 80.6562 29.274 80.6562 27.9686C80.6562 26.6552 81.1265 25.5404 82.067 24.6242C83.0075 23.7081 84.1304 23.25 85.4357 23.25C86.3681 23.25 87.2437 23.5054 88.0626 24.0162C88.8814 24.5269 89.4571 25.208 89.7895 26.0593H87.795ZM91.334 23.4203H93.0001V30.7901H95.7486V32.4076H91.334V23.4203ZM105.587 27.9565C105.587 29.2537 105.129 30.3563 104.213 31.2644C103.297 32.1724 102.194 32.6265 100.905 32.6265C99.616 32.6265 98.5133 32.1724 97.5972 31.2644C96.681 30.3563 96.2229 29.2537 96.2229 27.9565C96.2229 26.6511 96.6769 25.5404 97.585 24.6242C98.4931 23.7081 99.5997 23.25 100.905 23.25C102.194 23.25 103.297 23.7081 104.213 24.6242C105.129 25.5404 105.587 26.6511 105.587 27.9565ZM97.889 27.92C97.889 28.7551 98.187 29.4787 98.7829 30.0908C99.3788 30.7029 100.086 31.009 100.905 31.009C101.732 31.009 102.441 30.705 103.033 30.0969C103.625 29.4888 103.921 28.7632 103.921 27.92C103.921 27.0687 103.629 26.3471 103.046 25.7553C102.462 25.1634 101.748 24.8675 100.905 24.8675C100.062 24.8675 99.3484 25.1634 98.7647 25.7553C98.1809 26.3471 97.889 27.0687 97.889 27.92ZM106.901 23.4203H108.53C109.163 23.4203 109.635 23.4344 109.947 23.4628C110.259 23.4912 110.596 23.5966 110.957 23.779C111.317 23.9614 111.613 24.233 111.844 24.5938C112.075 24.9546 112.191 25.3499 112.191 25.7796C112.191 26.1444 112.106 26.4829 111.936 26.7951C111.765 27.1072 111.522 27.3403 111.206 27.4943C111.692 27.6484 112.069 27.92 112.337 28.3092C112.604 28.6983 112.738 29.1524 112.738 29.6712C112.738 30.1091 112.647 30.5063 112.465 30.8631C112.282 31.2198 112.008 31.536 111.644 31.8117C111.327 32.0468 110.957 32.2049 110.531 32.286C110.105 32.367 109.645 32.4076 109.151 32.4076H106.901V23.4203ZM109.26 30.7901C109.552 30.7901 109.805 30.7698 110.02 30.7293C110.235 30.6888 110.44 30.6036 110.634 30.4739C110.926 30.2793 111.072 29.9875 111.072 29.5983C111.072 29.3794 111.025 29.201 110.932 29.0632C110.839 28.9253 110.687 28.7956 110.476 28.674C110.314 28.5929 110.117 28.5423 109.886 28.522C109.655 28.5017 109.507 28.4916 109.442 28.4916H109.296H108.567V30.7901H109.26ZM108.883 26.8741H109.017C109.39 26.8741 109.615 26.868 109.692 26.8559C109.769 26.8437 109.876 26.8052 110.014 26.7403C110.355 26.5883 110.525 26.3147 110.525 25.9194C110.525 25.7431 110.474 25.585 110.373 25.4492C110.271 25.3114 110.136 25.206 109.965 25.135C109.901 25.1026 109.807 25.0783 109.686 25.062C109.564 25.0458 109.455 25.0377 109.357 25.0377C109.276 25.0377 109.195 25.0377 109.114 25.0377C109.033 25.0377 108.952 25.0377 108.871 25.0377H108.567V26.8741H108.883ZM115.62 23.4203V29.0267C115.62 29.351 115.629 29.5942 115.645 29.7564C115.661 29.9185 115.71 30.0807 115.791 30.2428C115.92 30.4861 116.087 30.6746 116.289 30.8083C116.492 30.9421 116.723 31.009 116.983 31.009C117.469 31.009 117.846 30.7982 118.114 30.3766C118.227 30.1901 118.296 30.0037 118.32 29.8172C118.345 29.6307 118.357 29.3672 118.357 29.0267V23.4203H120.023V29.0267C120.023 29.5618 119.986 29.9915 119.913 30.3158C119.816 30.7536 119.628 31.1408 119.348 31.4772C119.068 31.8137 118.716 32.0894 118.29 32.3042C117.864 32.5191 117.428 32.6265 116.983 32.6265C116.561 32.6265 116.145 32.5272 115.736 32.3285C115.327 32.1299 114.976 31.8644 114.684 31.532C114.392 31.1995 114.189 30.8063 114.076 30.3523C113.995 30.0199 113.954 29.578 113.954 29.0267V23.4203H115.62ZM122.82 29.878C122.82 30.2266 122.94 30.5023 123.179 30.705C123.418 30.9077 123.716 31.009 124.073 31.009C124.389 31.009 124.663 30.9016 124.894 30.6867C125.125 30.4719 125.24 30.2023 125.24 29.878C125.24 29.4402 125.074 29.0956 124.742 28.8443C124.531 28.6821 124.174 28.52 123.671 28.3578C123.274 28.2281 122.998 28.1267 122.844 28.0538C122.569 27.924 122.325 27.7497 122.115 27.5308C121.644 27.0444 121.409 26.4687 121.409 25.8039C121.409 25.0823 121.667 24.4763 122.182 23.9858C122.696 23.4953 123.323 23.25 124.061 23.25C124.766 23.25 125.38 23.4993 125.903 23.9979C126.426 24.4965 126.687 25.0985 126.687 25.8039H124.973C124.973 25.5282 124.873 25.3033 124.675 25.1289C124.476 24.9546 124.239 24.8675 123.963 24.8675C123.696 24.8675 123.481 24.9567 123.319 25.135C123.157 25.3134 123.075 25.5404 123.075 25.8161C123.075 26.1079 123.197 26.3471 123.44 26.5336C123.619 26.6714 123.874 26.7971 124.206 26.9106C124.75 27.0971 125.058 27.2065 125.131 27.239C125.439 27.3687 125.714 27.5349 125.958 27.7376C126.59 28.2403 126.906 28.9213 126.906 29.7807C126.906 30.5753 126.618 31.2482 126.043 31.7995C125.467 32.3508 124.782 32.6265 123.988 32.6265C123.201 32.6265 122.52 32.363 121.944 31.836C121.369 31.309 121.081 30.6563 121.081 29.878H122.82ZM131.467 23.4203H133.133V27.0201H136.344V23.4203H138.01V32.4076H136.344V28.6375H133.133V32.4076H131.467V23.4203ZM148.639 27.9565C148.639 29.2537 148.181 30.3563 147.265 31.2644C146.348 32.1724 145.246 32.6265 143.957 32.6265C142.668 32.6265 141.565 32.1724 140.649 31.2644C139.733 30.3563 139.275 29.2537 139.275 27.9565C139.275 26.6511 139.729 25.5404 140.637 24.6242C141.545 23.7081 142.651 23.25 143.957 23.25C145.246 23.25 146.348 23.7081 147.265 24.6242C148.181 25.5404 148.639 26.6511 148.639 27.9565ZM140.941 27.92C140.941 28.7551 141.239 29.4787 141.835 30.0908C142.43 30.7029 143.138 31.009 143.957 31.009C144.784 31.009 145.493 30.705 146.085 30.0969C146.677 29.4888 146.973 28.7632 146.973 27.92C146.973 27.0687 146.681 26.3471 146.097 25.7553C145.513 25.1634 144.8 24.8675 143.957 24.8675C143.113 24.8675 142.4 25.1634 141.816 25.7553C141.233 26.3471 140.941 27.0687 140.941 27.92ZM150.864 25.0377H149.21V23.4203H154.209V25.0377H152.531V32.4076H150.864V25.0377ZM155.06 23.4203H159.888V25.0377H156.726V27.1052H159.754V28.7227H156.726V30.7901H159.888V32.4076H155.06V23.4203ZM161.384 23.4203H163.05V30.7901H165.799V32.4076H161.384V23.4203ZM96.9222 39.1815H95.2683V37.564H100.267V39.1815H98.5883V46.5514H96.9222V39.1815ZM103.27 37.564H104.572L108.354 46.5514H106.518L105.545 44.2285H102.358L101.361 46.5514H99.5248L103.27 37.564ZM104.888 42.6111L103.927 39.8869L102.966 42.6111H104.888ZM110.361 44.0218C110.361 44.3704 110.48 44.6461 110.719 44.8488C110.959 45.0514 111.257 45.1528 111.613 45.1528C111.929 45.1528 112.203 45.0454 112.434 44.8305C112.665 44.6157 112.781 44.3461 112.781 44.0218C112.781 43.584 112.615 43.2394 112.282 42.9881C112.071 42.8259 111.715 42.6637 111.212 42.5016C110.815 42.3719 110.539 42.2705 110.385 42.1976C110.109 42.0678 109.866 41.8935 109.655 41.6746C109.185 41.1882 108.95 40.6125 108.95 39.9477C108.95 39.2261 109.207 38.6201 109.722 38.1295C110.237 37.639 110.863 37.3938 111.601 37.3938C112.306 37.3938 112.921 37.6431 113.444 38.1417C113.966 38.6403 114.228 39.2423 114.228 39.9477H112.513C112.513 39.672 112.414 39.447 112.215 39.2727C112.017 39.0984 111.779 39.0112 111.504 39.0112C111.236 39.0112 111.021 39.1004 110.859 39.2788C110.697 39.4572 110.616 39.6842 110.616 39.9598C110.616 40.2517 110.738 40.4909 110.981 40.6774C111.159 40.8152 111.415 40.9409 111.747 41.0544C112.29 41.2408 112.598 41.3503 112.671 41.3827C112.979 41.5124 113.255 41.6787 113.498 41.8814C114.131 42.384 114.447 43.0651 114.447 43.9245C114.447 44.719 114.159 45.392 113.583 45.9433C113.008 46.4946 112.323 46.7703 111.528 46.7703C110.742 46.7703 110.061 46.5068 109.485 45.9798C108.909 45.4528 108.622 44.8001 108.622 44.0218H110.361ZM115.602 37.564H117.268V41.1638H120.479V37.564H122.145V46.5514H120.479V42.7813H117.268V46.5514H115.602V37.564ZM123.872 37.564H125.538V41.4557L128.335 37.564H130.33L126.937 41.9787L130.33 46.5514H128.335L125.538 42.6111V46.5514H123.872V37.564ZM131.412 37.564H136.24V39.1815H133.078V41.249H136.106V42.8664H133.078V44.9339H136.24V46.5514H131.412V37.564ZM137.736 37.564H139.609L143.355 44.1312V37.564H145.021V46.5514L143.168 46.5534L139.402 40.0004V46.5513H137.736V37.564ZM147.648 39.1815H145.994V37.564H150.992V39.1815H149.314V46.5514H147.648V39.1815Z" fill="#1B1918"/>
</svg>
