<svg width="187" height="50" viewBox="0 0 187 50" fill="none" xmlns="http://www.w3.org/2000/svg">
<path d="M25 0C11.202 0 0 11.202 0 25C0 38.798 11.202 50 25 50C38.773 50 49.9555 38.838 49.996 25.074C49.9982 25.0494 49.9996 25.0247 50 25C49.9997 24.9778 49.9987 24.9556 49.997 24.9335C49.961 11.166 38.776 0 25 0ZM25 1.5C26.0955 1.5 27.172 1.581 28.2275 1.7255C28.1825 1.7855 28.3055 1.9205 28.7355 2.167L29.247 2.341C29.887 2.2615 29.6145 2.0425 29.192 1.88C30.7366 2.15752 32.2492 2.59004 33.707 3.171C33.303 3.262 32.688 3.312 32.08 3.288C32.095 4.4935 32.63 7.7145 34.465 7.13C34.139 7.2015 35.501 8.5495 34.797 8.775C34.422 11.295 32.3795 7.0945 31.343 7.1495C29.793 7.411 31.637 8.177 31.078 8.5525C29.6115 9.8125 32.347 11.134 32.126 9.0165C32.306 10.7235 32.884 10.671 34.2675 10.582C31.107 11.116 36.0275 12.3405 34.4295 13.3635C32.846 13.2175 31.9585 13.8085 32.8535 15.3585C32.4335 16.7935 33.852 16.8565 34.3385 17.3525L34.87 17.3035L35.214 17.2585C35.2005 17.257 35.186 17.26 35.173 17.258C37.1465 16.6505 36.126 12.701 38.2295 12.959C37.789 14.4865 40.22 15.941 38.916 13.7255C38.027 12.6025 41.7995 14.5335 40.1375 15.0855C41.754 17.2195 40.6145 13.0925 41.8185 14.214C42.601 15.577 43.5175 14.5625 43.7305 14.5115C44.2485 14.367 45.03 14.5945 45.2355 14.716C47.218 16.609 43.3575 15.824 43.3005 17.2715C43.5105 18.198 41.1805 17.024 40.832 16.7715C39.8105 14.018 37.4835 16.7645 35.772 17.207C35.714 17.2525 34.308 18.3495 34.1425 18.495C33.7415 20.9075 31.8025 22.374 31.083 24.8145C30.9385 26.2245 31.406 28.175 31.21 29.6965C31.666 31.6475 33.512 32.7645 35.121 33.7195C36.332 34.4995 37.5945 33.0055 38.8975 32.9885C40.0375 31.3115 41.8625 32.541 42.8935 32.417C41.706 34.287 43.7765 35.732 43.1905 37.755C42.272 38.879 42.0135 40.3725 41.5215 41.714C37.278 45.909 31.445 48.5 25 48.5C21.8766 48.5039 18.7839 47.8837 15.9035 46.676C16.434 46.1935 16.7435 45.4745 17.457 45.2685C20.6975 46.052 19.287 42.0425 21.487 41.1355C22.9615 38.4335 18.255 38.0035 16.575 37.0195C13.734 36.5905 14.001 33.1325 11.421 32.3845C9.308 32.048 10.0745 29.003 8.5255 29.166C7.1885 29.4145 6.658 27.5745 5.913 27.706C5.733 27.896 4.98 26.471 4.17 28.041C1.8825 27.5345 3.483 24.908 2.5165 23.4375C2.116 22.764 3.6595 19.3105 2.006 21.3175C1.941 21.2025 1.897 21.046 1.87 20.8625C2.08144 19.6716 2.38451 18.4988 2.7765 17.3545C3.02 17.084 3.3 16.9495 3.6085 17.051C4.831 16.773 4.4245 18.6935 4.5255 19.883C5.447 20.278 5.0155 16.396 6.9305 16.3055C8.234 14.838 9.7455 13.5885 11.3305 12.578C11.9485 13.019 13.2785 12.9655 14.3215 11.9865C13.1595 11.753 13.076 10.8665 14.629 10.5175C17.1 9.4555 13.514 11.6815 15.5315 12.0025C17.7215 12.6475 15.8645 10.0985 16.9025 9.1015C15.8155 8.3615 17.56 5.4845 15.659 6.7625C16.3165 6.2925 15.294 5.4105 15.881 5.0665C16.1235 5.7465 17.346 6.6805 17.7805 5.1125C19.002 5.321 18.8305 3.5515 19.4905 2.5995C22.588 1.508 20.0235 4.511 19.907 6.001C20.904 8.906 22.5855 4.881 24.357 4.781C26.511 4.8545 26.265 2.7955 26.2315 1.6935C25.7662 1.60643 25.2967 1.54301 24.825 1.5035C24.8835 1.5035 24.9415 1.5 25 1.5ZM16.6895 3.9835C17.086 3.935 16.4605 4.7955 15.6055 4.9375C14.4655 5.888 15.437 4.6035 15.923 4.3945C16.3115 4.1165 16.5575 3.9995 16.6895 3.9835ZM34.1745 4.6125C34.209 4.6095 34.263 4.619 34.3445 4.6465C34.7115 5.2545 33.937 4.6315 34.1745 4.6125ZM14.048 4.8985C14.9245 4.962 13.9905 7.0075 13.0165 7.1085C12.4945 7.06 12.138 7.8835 11.7345 8.1525C11.6945 8.3325 11.7665 5.3345 13.1295 5.219C13.547 4.974 13.8455 4.884 14.048 4.8985ZM26.667 4.9535C26.22 4.972 25.888 5.1605 26.0705 5.6465C26.3315 5.898 26.712 5.959 27.0585 5.961C29.1935 5.696 27.6505 4.9125 26.667 4.9535ZM34.2295 5.343C34.3245 5.352 34.546 5.436 34.958 5.644C35.79 6.694 33.8195 5.306 34.2295 5.3435M30.118 6.1145C30.091 6.126 30.0685 6.1765 30.0605 6.287C30.452 6.727 30.2355 6.0625 30.118 6.1145ZM31.63 6.4775C31.598 6.469 31.595 6.5385 31.659 6.7575C32.0795 7.2365 31.725 6.5035 31.63 6.4775ZM35.91 6.4825C36.254 6.481 37.2165 7.0795 37.0225 7.7325C36.093 8.4835 36.5235 8.0825 36.342 7.25C35.7195 6.6995 35.704 6.4835 35.91 6.4825ZM8.8105 9.5195C8.8785 9.5275 8.9755 9.609 9.1085 9.8095C8.7765 10.8285 8.5165 9.485 8.8105 9.5195ZM13.453 10.1105C13.515 10.111 13.616 10.1605 13.7645 10.3005C13.44 10.5455 13.268 10.108 13.453 10.1105ZM41.898 10.2905C41.9865 10.28 42.1605 10.404 42.451 10.7395C42.798 10.1695 44.589 11.4925 43.035 11.7315C42.742 12.9005 41.5165 10.3345 41.8985 10.29M8.847 10.7595C8.8795 10.752 8.914 10.772 8.9485 10.8315C8.4825 12.205 8.6195 10.81 8.847 10.7595ZM39.0895 12.1705C39.1055 12.1668 39.1222 12.1672 39.138 12.1715C39.418 12.218 40.5215 12.8455 40.9615 13.2825C41.231 13.8855 40.078 12.8115 39.8445 12.8815C39.1915 12.3945 39.0115 12.194 39.0895 12.1705ZM8.272 12.182C8.329 12.1935 8.3735 12.252 8.386 12.387C7.5425 12.9735 8.025 12.132 8.272 12.182ZM42.46 13.3C42.503 13.2815 42.627 13.351 42.883 13.592C42.928 14.203 42.3305 13.355 42.46 13.3ZM37.323 14.457C37.2195 14.4735 37.0605 14.654 36.8435 15.133C37.4485 15.839 37.6335 14.408 37.323 14.457ZM43.692 14.961C43.579 14.976 43.4605 15.1025 43.3815 15.4295C44.3215 15.878 44.031 14.917 43.692 14.961ZM25.4215 16.351C25.3 16.34 25.13 16.391 24.923 16.5625C25.72 16.9745 25.7875 16.383 25.422 16.3505M26.525 16.726C26.475 16.7075 26.376 16.742 26.2075 16.8835C26.381 17.3175 26.674 16.782 26.525 16.726ZM30.495 19.265C30.4465 19.2765 30.3835 19.33 30.3025 19.4515C30.6095 19.9595 30.7025 19.215 30.4945 19.265M5.411 19.479C5.3655 19.4795 5.338 19.593 5.365 19.9185C5.853 20.4995 5.548 19.4775 5.411 19.479ZM5.1395 20.304C5.094 20.2965 5.0255 20.432 4.9345 20.8355C5.2095 21.636 5.277 20.3275 5.1395 20.304ZM3.743 20.726C2.7725 20.626 4.5585 22.3395 4.629 23.095C6.4265 23.58 4.3775 24.129 5.8975 24.7415C8.186 25.5655 6.7715 23.725 5.801 23.3375C6.1815 22.726 4.8355 22.275 4.341 20.888C4.0765 20.7915 3.882 20.7405 3.743 20.726ZM32.0945 21.109C31.9915 21.109 31.878 21.299 31.83 21.8655C32.501 22.027 32.3215 21.109 32.0945 21.109ZM5.6325 21.517C5.62615 21.5153 5.61952 21.5149 5.613 21.5157C5.60648 21.5166 5.60019 21.5187 5.5945 21.522C5.542 21.5555 5.5385 21.7185 5.6845 22.0735L5.7975 22.1485C5.891 21.817 5.732 21.5425 5.6325 21.517ZM30.3855 21.559C30.0915 21.576 29.902 21.709 30.1105 22.057L30.1985 22.098H30.698C32.1815 22.049 31.0315 21.522 30.3855 21.559ZM4.24 23.382C4.1085 23.354 4.09 23.5065 4.405 24.038C5.367 24.3725 4.53 23.443 4.24 23.382ZM1.5555 23.457C1.889 24.9015 2.1015 26.581 2.7205 27.8505C3.1295 29.4045 3.431 27.4485 3.533 28.673C3.88 30.986 2.47 33.369 4.205 35.587C5.03 37.8235 6.842 39.3905 8.11 41.338C4.02 37.11 1.5 31.353 1.5 25C1.5 24.481 1.5225 23.9675 1.5555 23.457ZM7.538 24.791C7.418 24.806 7.311 24.934 7.282 25.2645C8.384 25.715 7.8985 24.7455 7.538 24.791ZM9.293 26.6135C9.2445 26.594 9.194 26.813 9.161 27.4705L9.181 27.833C9.571 28.875 9.439 26.671 9.293 26.6135ZM26.831 28.0805C26.7065 28.067 26.705 28.164 27.051 28.4925C27.9745 28.6755 27.105 28.1105 26.831 28.0805ZM28.174 28.388C28.1165 28.389 28.0415 28.4305 27.9475 28.5385C28.3305 29.1405 28.4225 28.3835 28.174 28.388ZM27.951 29.047C27.863 29.061 27.7395 29.1195 27.5725 29.246C28.032 29.742 28.3325 28.985 27.951 29.047ZM27.306 29.1435C27.259 29.1385 27.188 29.2075 27.091 29.416C27.366 29.839 27.446 29.1585 27.306 29.1435ZM41.916 33.8C41.869 33.795 41.798 33.8635 41.701 34.0725C41.976 34.4955 42.0565 33.8145 41.916 33.8Z" fill="#007AFF"/>
<path d="M68.8401 12.6748C68.7257 12.3157 68.5718 11.9941 68.3784 11.71C68.189 11.422 67.9622 11.1774 67.6978 10.9761C67.4334 10.771 67.1316 10.6151 66.7923 10.5086C66.4569 10.402 66.0879 10.3488 65.6855 10.3488C65.0029 10.3488 64.3873 10.5244 63.8389 10.8755C63.2904 11.2267 62.8564 11.7416 62.5368 12.4203C62.2212 13.095 62.0633 13.9216 62.0633 14.9001C62.0633 15.8826 62.2231 16.7132 62.5427 17.3919C62.8623 18.0705 63.3003 18.5854 63.8567 18.9366C64.413 19.2878 65.0463 19.4634 65.7565 19.4634C66.4154 19.4634 66.9895 19.3292 67.4788 19.0609C67.972 18.7926 68.3528 18.4138 68.6211 17.9245C68.8933 17.4313 69.0295 16.8513 69.0295 16.1845L69.503 16.2732H66.0347V14.764H70.7991V16.143C70.7991 17.161 70.5821 18.0449 70.1481 18.7946C69.718 19.5403 69.1222 20.1164 68.3607 20.5228C67.6031 20.9292 66.735 21.1324 65.7565 21.1324C64.6596 21.1324 63.6968 20.8799 62.8682 20.3748C62.0436 19.8698 61.4004 19.1536 60.9388 18.2264C60.4772 17.2952 60.2463 16.1904 60.2463 14.912C60.2463 13.9453 60.3805 13.0772 60.6488 12.3078C60.9171 11.5384 61.2939 10.8854 61.7792 10.3488C62.2685 9.80821 62.8426 9.39588 63.5015 9.11179C64.1644 8.82375 64.8885 8.67973 65.6736 8.67973C66.3286 8.67973 66.9382 8.7764 67.5025 8.96974C68.0707 9.16308 68.5757 9.43731 69.0176 9.79242C69.4635 10.1475 69.8324 10.5697 70.1244 11.059C70.4164 11.5443 70.6137 12.0829 70.7163 12.6748H68.8401Z" fill="#007AFF"/>
<path d="M73.1207 20.9667V8.84545H74.9495V19.3923H80.4419V20.9667H73.1207Z" fill="#007AFF"/>
<path d="M92.5853 14.9061C92.5853 16.2003 92.3486 17.3129 91.8751 18.2441C91.4016 19.1714 90.7526 19.8855 89.9279 20.3866C89.1072 20.8838 88.174 21.1324 87.1284 21.1324C86.0789 21.1324 85.1418 20.8838 84.3171 20.3866C83.4964 19.8855 82.8493 19.1694 82.3758 18.2382C81.9023 17.307 81.6656 16.1963 81.6656 14.9061C81.6656 13.6119 81.9023 12.5012 82.3758 11.5739C82.8493 10.6427 83.4964 9.92855 84.3171 9.43139C85.1418 8.93029 86.0789 8.67973 87.1284 8.67973C88.174 8.67973 89.1072 8.93029 89.9279 9.43139C90.7526 9.92855 91.4016 10.6427 91.8751 11.5739C92.3486 12.5012 92.5853 13.6119 92.5853 14.9061ZM90.7743 14.9061C90.7743 13.9196 90.6145 13.0891 90.2949 12.4143C89.9792 11.7357 89.5452 11.2227 88.9928 10.8755C88.4443 10.5244 87.8229 10.3488 87.1284 10.3488C86.43 10.3488 85.8066 10.5244 85.2582 10.8755C84.7097 11.2227 84.2757 11.7357 83.9561 12.4143C83.6404 13.0891 83.4826 13.9196 83.4826 14.9061C83.4826 15.8925 83.6404 16.725 83.9561 17.4037C84.2757 18.0784 84.7097 18.5914 85.2582 18.9425C85.8066 19.2897 86.43 19.4634 87.1284 19.4634C87.8229 19.4634 88.4443 19.2897 88.9928 18.9425C89.5452 18.5914 89.9792 18.0784 90.2949 17.4037C90.6145 16.725 90.7743 15.8925 90.7743 14.9061Z" fill="#007AFF"/>
<path d="M94.8655 20.9667V8.84545H99.3044C100.165 8.84545 100.877 8.9875 101.441 9.27159C102.005 9.55174 102.427 9.9325 102.708 10.4139C102.988 10.8913 103.128 11.4299 103.128 12.0296C103.128 12.5347 103.035 12.9608 102.85 13.308C102.664 13.6513 102.416 13.9275 102.104 14.1366C101.796 14.3418 101.457 14.4918 101.086 14.5865V14.7048C101.488 14.7246 101.881 14.8548 102.264 15.0955C102.65 15.3322 102.97 15.6696 103.222 16.1075C103.475 16.5455 103.601 17.0782 103.601 17.7055C103.601 18.325 103.455 18.8814 103.163 19.3746C102.875 19.8638 102.429 20.2525 101.826 20.5405C101.222 20.8246 100.451 20.9667 99.5115 20.9667H94.8655ZM96.6943 19.3982H99.334C100.21 19.3982 100.837 19.2286 101.216 18.8893C101.595 18.5499 101.784 18.1258 101.784 17.6168C101.784 17.234 101.688 16.8829 101.494 16.5633C101.301 16.2437 101.025 15.9892 100.666 15.7998C100.311 15.6104 99.8884 15.5157 99.3991 15.5157H96.6943V19.3982ZM96.6943 14.0893H99.1446C99.5549 14.0893 99.9239 14.0104 100.251 13.8526C100.583 13.6947 100.845 13.4738 101.039 13.1897C101.236 12.9016 101.334 12.5623 101.334 12.1717C101.334 11.6706 101.159 11.2504 100.808 10.911C100.457 10.5717 99.918 10.402 99.1919 10.402H96.6943V14.0893Z" fill="#007AFF"/>
<path d="M113.565 8.84545H115.4V16.8178C115.4 17.6661 115.201 18.4177 114.802 19.0727C114.404 19.7238 113.843 20.2367 113.121 20.6116C112.399 20.9825 111.553 21.1679 110.582 21.1679C109.616 21.1679 108.771 20.9825 108.049 20.6116C107.327 20.2367 106.767 19.7238 106.368 19.0727C105.97 18.4177 105.77 17.6661 105.77 16.8178V8.84545H107.599V16.6698C107.599 17.2182 107.72 17.7055 107.96 18.1317C108.205 18.5578 108.55 18.8932 108.996 19.1378C109.442 19.3785 109.971 19.4989 110.582 19.4989C111.198 19.4989 111.728 19.3785 112.174 19.1378C112.624 18.8932 112.967 18.5578 113.204 18.1317C113.445 17.7055 113.565 17.2182 113.565 16.6698V8.84545Z" fill="#007AFF"/>
<path d="M124.67 12.0296C124.607 11.4694 124.346 11.0353 123.889 10.7276C123.431 10.4158 122.855 10.26 122.16 10.26C121.663 10.26 121.233 10.3389 120.87 10.4967C120.507 10.6506 120.225 10.8637 120.024 11.1359C119.827 11.4042 119.728 11.71 119.728 12.0533C119.728 12.3414 119.795 12.5899 119.929 12.7991C120.067 13.0082 120.247 13.1838 120.468 13.3258C120.693 13.4639 120.933 13.5803 121.19 13.675C121.446 13.7658 121.693 13.8407 121.93 13.8999L123.113 14.2077C123.5 14.3024 123.897 14.4306 124.303 14.5924C124.709 14.7542 125.086 14.9672 125.433 15.2316C125.781 15.4959 126.061 15.8234 126.274 16.2141C126.491 16.6047 126.599 17.0723 126.599 17.6168C126.599 18.3033 126.422 18.9129 126.067 19.4456C125.715 19.9783 125.205 20.3985 124.534 20.7063C123.867 21.014 123.06 21.1679 122.113 21.1679C121.206 21.1679 120.42 21.0239 119.757 20.7358C119.095 20.4478 118.576 20.0394 118.201 19.5107C117.826 18.978 117.619 18.3467 117.579 17.6168H119.414C119.45 18.0547 119.592 18.4197 119.84 18.7117C120.093 18.9997 120.414 19.2148 120.805 19.3568C121.2 19.4949 121.632 19.564 122.101 19.564C122.618 19.564 123.078 19.4831 123.48 19.3213C123.887 19.1556 124.206 18.9267 124.439 18.6348C124.672 18.3388 124.788 17.9936 124.788 17.599C124.788 17.2399 124.686 16.946 124.48 16.7171C124.279 16.4883 124.005 16.2989 123.658 16.149C123.315 15.999 122.926 15.8668 122.492 15.7524L121.06 15.3618C120.089 15.0974 119.319 14.7088 118.751 14.1958C118.187 13.6829 117.905 13.0042 117.905 12.1598C117.905 11.4615 118.094 10.8518 118.473 10.331C118.852 9.81018 119.365 9.40574 120.012 9.11771C120.659 8.82573 121.389 8.67973 122.202 8.67973C123.023 8.67973 123.747 8.82375 124.374 9.11179C125.005 9.39983 125.502 9.79637 125.865 10.3014C126.228 10.8025 126.418 11.3786 126.434 12.0296H124.67Z" fill="#007AFF"/>
<path d="M133.196 20.9667V8.84545H135.024V14.113H141.067V8.84545H142.902V20.9667H141.067V15.6814H135.024V20.9667H133.196Z" fill="#007AFF"/>
<path d="M156.094 14.9061C156.094 16.2003 155.858 17.3129 155.384 18.2441C154.911 19.1714 154.262 19.8855 153.437 20.3866C152.616 20.8838 151.683 21.1324 150.638 21.1324C149.588 21.1324 148.651 20.8838 147.826 20.3866C147.006 19.8855 146.358 19.1694 145.885 18.2382C145.411 17.307 145.175 16.1963 145.175 14.9061C145.175 13.6119 145.411 12.5012 145.885 11.5739C146.358 10.6427 147.006 9.92855 147.826 9.43139C148.651 8.93029 149.588 8.67973 150.638 8.67973C151.683 8.67973 152.616 8.93029 153.437 9.43139C154.262 9.92855 154.911 10.6427 155.384 11.5739C155.858 12.5012 156.094 13.6119 156.094 14.9061ZM154.283 14.9061C154.283 13.9196 154.124 13.0891 153.804 12.4143C153.488 11.7357 153.054 11.2227 152.502 10.8755C151.953 10.5244 151.332 10.3488 150.638 10.3488C149.939 10.3488 149.316 10.5244 148.767 10.8755C148.219 11.2227 147.785 11.7357 147.465 12.4143C147.15 13.0891 146.992 13.9196 146.992 14.9061C146.992 15.8925 147.15 16.725 147.465 17.4037C147.785 18.0784 148.219 18.5914 148.767 18.9425C149.316 19.2897 149.939 19.4634 150.638 19.4634C151.332 19.4634 151.953 19.2897 152.502 18.9425C153.054 18.5914 153.488 18.0784 153.804 17.4037C154.124 16.725 154.283 15.8925 154.283 14.9061Z" fill="#007AFF"/>
<path d="M157.256 10.4198V8.84545H166.637V10.4198H162.855V20.9667H161.032V10.4198H157.256Z" fill="#007AFF"/>
<path d="M168.71 20.9667V8.84545H176.309V10.4198H170.539V14.113H175.913V15.6814H170.539V19.3923H176.38V20.9667H168.71Z" fill="#007AFF"/>
<path d="M178.752 20.9667V8.84545H180.581V19.3923H186.073V20.9667H178.752Z" fill="#007AFF"/>
<path d="M79.546 30.5865V29.0121H88.9269V30.5865H85.145V41.1333H83.3221V30.5865H79.546Z" fill="#007AFF"/>
<path d="M90.5915 41.1333H88.6502L93.0122 29.0121H95.1251L99.4871 41.1333H97.5458L94.119 31.2138H94.0243L90.5915 41.1333ZM90.9171 36.3866H97.2144V37.9255H90.9171V36.3866Z" fill="#007AFF"/>
<path d="M107.751 32.1963C107.688 31.636 107.427 31.202 106.97 30.8942C106.512 30.5825 105.936 30.4267 105.241 30.4267C104.744 30.4267 104.314 30.5056 103.951 30.6634C103.588 30.8173 103.306 31.0304 103.105 31.3026C102.908 31.5709 102.809 31.8767 102.809 32.22C102.809 32.508 102.876 32.7566 103.01 32.9657C103.148 33.1748 103.328 33.3504 103.549 33.4925C103.774 33.6306 104.014 33.747 104.271 33.8417C104.527 33.9324 104.774 34.0074 105.011 34.0666L106.194 34.3743C106.581 34.469 106.978 34.5973 107.384 34.759C107.79 34.9208 108.167 35.1339 108.514 35.3982C108.862 35.6626 109.142 35.9901 109.355 36.3807C109.572 36.7714 109.68 37.2389 109.68 37.7834C109.68 38.47 109.503 39.0796 109.148 39.6123C108.797 40.1449 108.286 40.5652 107.615 40.8729C106.948 41.1807 106.141 41.3346 105.194 41.3346C104.287 41.3346 103.501 41.1905 102.839 40.9025C102.176 40.6145 101.657 40.2061 101.282 39.6774C100.907 39.1447 100.7 38.5134 100.66 37.7834H102.495C102.531 38.2214 102.673 38.5864 102.921 38.8784C103.174 39.1664 103.495 39.3814 103.886 39.5235C104.281 39.6616 104.713 39.7306 105.182 39.7306C105.699 39.7306 106.159 39.6497 106.561 39.488C106.968 39.3223 107.287 39.0934 107.52 38.8014C107.753 38.5055 107.869 38.1602 107.869 37.7657C107.869 37.4066 107.767 37.1127 107.562 36.8838C107.36 36.655 107.086 36.4656 106.739 36.3156C106.396 36.1657 106.007 36.0335 105.573 35.9191L104.141 35.5285C103.17 35.2641 102.401 34.8754 101.832 34.3625C101.268 33.8496 100.986 33.1709 100.986 32.3265C100.986 31.6281 101.175 31.0185 101.554 30.4977C101.933 29.9768 102.446 29.5724 103.093 29.2844C103.74 28.9924 104.47 28.8464 105.283 28.8464C106.104 28.8464 106.828 28.9904 107.455 29.2785C108.086 29.5665 108.583 29.963 108.946 30.4681C109.309 30.9692 109.499 31.5453 109.515 32.1963H107.751Z" fill="#007AFF"/>
<path d="M111.866 41.1333V29.0121H113.695V34.2796H119.737V29.0121H121.572V41.1333H119.737V35.8481H113.695V41.1333H111.866Z" fill="#007AFF"/>
<path d="M124.236 41.1333V29.0121H126.064V34.8005H126.212L131.296 29.0121H133.599L128.71 34.469L133.617 41.1333H131.415L127.497 35.7179L126.064 37.3632V41.1333H124.236Z" fill="#007AFF"/>
<path d="M135.303 41.1333V29.0121H142.903V30.5865H137.132V34.2796H142.506V35.8481H137.132V39.559H142.974V41.1333H135.303Z" fill="#007AFF"/>
<path d="M155.129 29.0121V41.1333H153.448L147.287 32.2437H147.174V41.1333H145.346V29.0121H147.038L153.205 37.9136H153.318V29.0121H155.129Z" fill="#007AFF"/>
<path d="M157.199 30.5865V29.0121H166.58V30.5865H162.798V41.1333H160.975V30.5865H157.199Z" fill="#007AFF"/>
</svg>
